{"glyphs":{"0":{"ha":439,"x_min":-24,"x_max":478,"o":"m 228 772 q 249 799 233 788 q 288 818 265 811 q 317 824 301 822 q 349 822 333 825 q 434 782 406 814 q 470 704 463 750 q 469 605 478 658 q 442 499 460 551 q 403 401 425 447 q 364 328 381 356 q 302 237 336 279 q 235 163 268 194 q 132 97 182 114 q 47 94 82 81 q -6 151 11 108 q -11 263 -24 193 q 30 385 -1 319 q 100 515 61 451 q 180 633 139 578 q 251 725 221 689 q 246 735 250 728 q 238 749 242 742 q 230 763 233 756 q 228 772 226 769 m 194 192 q 259 265 226 222 q 321 353 292 308 q 353 416 333 372 q 392 511 374 460 q 421 615 410 563 q 426 704 432 667 q 394 756 421 742 q 310 746 368 769 q 319 723 313 740 q 322 703 325 706 q 300 680 315 696 q 263 638 285 664 q 170 517 221 589 q 79 369 119 444 q 30 235 39 293 q 38 150 21 178 q 95 130 54 122 q 194 192 136 138 z "},"1":{"ha":365,"x_min":-78,"x_max":451,"o":"m -50 101 q -58 108 -53 103 q -69 120 -64 114 q -76 132 -74 126 q -74 140 -78 138 q -50 151 -65 144 q -13 167 -35 158 q 35 186 8 176 q 89 204 61 196 q 75 215 81 210 q 71 221 69 219 q 101 272 76 231 q 159 371 125 314 q 231 492 193 428 q 304 614 269 557 q 367 719 340 676 q 399 769 393 763 q 404 787 406 781 q 388 786 403 793 q 299 742 347 771 q 210 684 251 713 q 140 635 168 656 q 111 614 111 614 q 101 621 108 617 q 88 631 94 625 q 76 640 81 636 q 75 647 71 644 q 100 666 82 653 q 142 697 118 679 q 196 733 167 714 q 256 771 225 753 q 322 806 290 790 q 381 829 354 822 q 395 821 382 829 q 422 800 408 813 q 444 772 436 788 q 442 742 451 756 q 417 701 438 735 q 366 617 396 667 q 301 508 336 567 q 232 392 265 449 q 171 289 199 336 q 128 215 143 242 q 202 232 164 226 q 272 235 240 238 q 281 231 274 235 q 294 221 288 226 q 306 208 301 215 q 311 194 311 200 q 199 184 261 199 q 81 150 136 169 q -10 113 26 131 q -47 96 -47 96 l -50 101 z "},"2":{"ha":453,"x_min":-56,"x_max":449,"o":"m 90 657 q 105 694 92 675 q 139 732 118 714 q 186 765 160 750 q 240 789 213 779 q 297 799 267 797 q 353 792 326 800 q 402 767 381 785 q 435 718 424 749 q 434 617 449 682 q 361 451 419 553 q 297 350 333 400 q 266 308 282 329 q 231 265 250 286 q 259 262 243 263 q 290 262 275 261 q 318 265 306 263 q 336 271 331 268 q 348 261 343 275 q 350 232 353 247 q 324 219 342 221 q 285 221 306 218 q 242 229 264 224 q 207 238 221 235 q 140 166 169 194 q 86 121 110 138 q 44 94 61 101 q 14 89 26 88 q -12 98 3 89 q -37 120 -26 107 q -52 150 -49 133 q -44 182 -56 167 q 8 241 -19 219 q 63 272 35 263 q 117 281 90 281 q 171 278 144 282 l 181 289 q 219 337 201 313 q 256 386 238 361 q 290 436 275 411 q 319 486 304 461 q 337 517 325 494 q 361 570 349 540 q 385 632 374 600 q 399 692 396 664 q 395 739 403 719 q 363 761 388 758 q 260 743 317 767 q 212 719 235 733 q 171 689 189 706 q 143 655 153 672 q 133 621 133 638 q 117 626 125 621 q 103 637 110 631 q 94 649 97 643 q 90 657 90 656 m 136 242 q 65 216 100 236 q -3 149 29 196 q -9 130 -14 132 q 7 133 -4 128 q 31 147 18 139 q 46 157 43 154 q 86 191 64 171 q 136 242 108 211 z "},"3":{"ha":458,"x_min":-93,"x_max":419,"o":"m -93 118 q 3 131 -50 114 q 114 176 57 147 q 191 227 149 196 q 269 294 233 258 q 331 368 306 331 q 356 435 356 406 q 325 484 356 465 q 221 503 294 503 q 215 510 218 503 q 209 528 211 518 q 206 547 207 538 q 208 558 206 556 q 237 579 215 563 q 285 616 258 596 q 335 659 311 636 q 372 699 360 682 q 379 726 385 717 q 339 732 374 736 q 272 716 308 728 q 199 687 236 704 q 130 647 163 669 q 75 600 97 625 q 72 613 72 603 q 71 635 71 624 q 72 657 71 647 q 76 669 74 667 q 135 714 101 693 q 206 751 169 735 q 276 776 242 767 q 340 789 311 786 q 378 783 361 790 q 406 761 396 775 q 418 728 417 747 q 411 689 419 710 q 370 631 400 665 q 282 549 340 597 q 361 500 339 532 q 381 428 383 468 q 354 344 378 389 q 294 258 331 300 q 215 181 258 217 q 128 122 171 144 q 23 77 75 94 q -74 63 -29 60 l -93 118 z "},"4":{"ha":419,"x_min":-10,"x_max":588,"o":"m 540 814 q 559 808 547 819 q 579 781 571 797 q 588 749 588 765 q 571 731 588 733 q 567 740 568 735 q 563 747 564 743 q 560 747 563 750 q 430 596 486 682 q 333 412 374 510 q 267 209 292 314 q 233 1 242 104 q 220 9 226 1 q 208 26 214 17 q 198 43 201 35 q 194 54 194 51 q 222 216 203 140 q 269 358 242 292 q 194 330 236 347 q 117 297 153 313 q 31 258 74 278 q 16 259 24 254 q 2 272 8 264 q -7 290 -4 281 q -8 306 -10 300 q 33 365 1 328 q 107 446 64 403 q 199 535 150 489 q 295 624 249 582 q 380 701 342 667 q 440 754 418 735 q 453 750 444 757 q 468 732 461 743 q 503 776 485 756 q 540 814 521 796 m 71 326 q 132 351 99 338 q 197 377 165 365 q 252 397 228 389 q 288 404 276 404 q 345 524 315 461 q 411 646 375 586 q 332 574 376 614 q 240 490 288 533 q 149 404 193 447 q 71 326 104 361 z "},"5":{"ha":486,"x_min":-39,"x_max":572,"o":"m -14 225 q 63 127 21 153 q 146 110 104 101 q 226 151 188 118 q 295 232 265 185 q 344 331 325 279 q 364 428 363 383 q 362 470 365 449 q 349 509 358 492 q 323 539 339 526 q 285 556 307 551 q 231 553 260 558 q 168 531 201 549 q 147 528 157 525 q 131 541 138 532 q 122 562 124 550 q 125 583 119 574 l 182 692 q 147 665 157 676 q 136 651 136 654 q 123 665 131 656 q 109 685 115 675 q 99 703 103 694 q 97 715 94 711 q 185 778 131 756 q 303 809 240 800 q 427 818 365 818 q 535 814 489 818 q 543 806 538 814 q 555 788 549 799 q 566 767 561 778 q 572 749 571 757 q 378 753 457 763 q 249 726 299 743 l 261 713 l 213 614 q 288 601 253 615 q 350 563 324 588 q 392 505 376 539 q 407 433 407 471 q 388 319 404 382 q 340 200 371 257 q 267 101 310 143 q 172 46 225 58 q 103 44 138 38 q 42 66 69 50 q -6 103 14 82 q -32 147 -26 125 q -36 153 -33 151 q -39 160 -39 154 q -34 180 -39 165 q -14 225 -29 194 z "},"6":{"ha":501,"x_min":-7,"x_max":471,"o":"m 374 351 q 392 459 400 418 q 353 518 385 500 q 269 533 321 536 q 158 507 218 529 q 153 522 154 517 q 149 539 151 526 q 125 494 139 524 q 97 428 111 465 q 70 349 82 390 q 53 271 58 308 q 58 172 43 204 q 103 133 74 139 q 172 143 133 126 q 250 191 211 160 q 322 264 289 222 q 374 351 356 306 m 176 574 q 302 578 244 592 q 395 527 360 565 q 439 431 431 489 q 418 306 447 374 q 372 233 399 269 q 312 166 344 197 q 243 113 279 135 q 169 83 207 90 q 87 94 121 79 q 32 136 53 108 q 2 200 11 164 q -4 275 -7 236 q 8 353 -3 311 q 33 435 18 394 q 64 512 47 476 q 97 571 81 547 q 158 649 124 610 q 234 723 193 689 q 322 782 275 757 q 417 817 368 807 q 434 803 422 817 q 456 776 446 790 q 468 751 465 761 q 458 744 471 740 q 448 750 453 746 q 439 758 443 754 q 429 765 435 763 q 417 764 424 767 q 289 690 351 740 q 176 574 226 640 z "},"7":{"ha":431,"x_min":6,"x_max":503,"o":"m 40 674 q 90 712 57 693 q 163 747 122 731 q 248 774 204 763 q 331 789 292 785 q 390 787 356 792 q 451 767 424 782 q 490 727 478 753 q 485 663 503 701 q 430 585 467 626 q 347 492 393 543 q 296 436 322 467 l 328 438 q 346 408 339 422 q 358 375 353 394 l 239 374 q 131 231 183 308 q 39 58 78 153 q 22 72 29 63 q 11 94 15 82 q 6 117 7 106 q 8 138 6 129 q 157 369 78 272 q 101 362 121 367 q 74 353 82 357 q 64 342 64 347 q 47 347 54 339 q 33 365 39 354 q 25 387 28 376 q 22 397 22 397 q 54 419 28 411 q 112 431 81 426 q 172 435 143 435 q 213 436 201 436 l 214 436 q 260 489 238 464 q 304 538 282 514 q 346 579 322 556 q 392 627 369 603 q 428 674 414 651 q 443 713 443 696 q 424 737 443 729 q 358 739 404 744 q 272 722 317 733 q 185 693 226 710 q 115 657 144 676 q 75 618 85 638 q 64 626 71 619 q 50 642 57 633 q 40 659 43 650 q 40 674 36 668 z "},"8":{"ha":388,"x_min":-15,"x_max":483,"o":"m 307 531 q 340 570 318 544 q 382 626 361 596 q 420 687 403 656 q 440 742 438 718 q 427 779 443 765 q 368 789 411 793 q 297 772 335 785 q 225 738 260 758 q 161 690 190 717 q 114 633 132 664 q 103 581 96 601 q 132 542 111 560 q 179 505 153 524 q 225 460 206 486 q 249 394 244 433 q 232 296 254 354 q 206 238 221 268 q 170 178 190 207 q 128 126 150 150 q 82 86 106 101 q 33 76 53 67 q 1 108 13 85 q -13 161 -11 131 q -8 215 -15 192 q 19 294 1 251 q 58 375 36 336 q 103 446 79 414 q 150 494 128 478 q 106 531 128 510 q 70 576 85 551 q 53 630 56 601 q 69 689 51 658 q 118 747 88 719 q 185 797 149 775 q 262 834 222 819 q 338 854 301 849 q 390 849 364 857 q 436 824 415 840 q 470 781 457 807 q 483 724 483 756 q 449 619 482 683 q 338 460 417 554 q 327 474 333 464 q 315 494 321 483 q 306 516 310 506 q 307 531 303 526 m 185 468 q 186 463 183 467 q 190 453 189 460 q 190 440 192 447 q 178 424 188 432 q 127 358 153 400 q 79 270 101 315 q 42 185 57 225 q 27 125 28 144 q 41 114 26 106 q 93 174 56 122 q 119 213 106 190 q 145 260 132 236 q 169 308 158 285 q 188 350 181 332 q 199 383 193 367 q 207 415 206 400 q 203 444 208 431 q 185 468 199 458 z "},"9":{"ha":403,"x_min":4,"x_max":485,"o":"m 346 536 q 394 626 372 582 q 421 703 415 671 q 409 748 426 735 q 339 744 392 761 q 262 704 299 732 q 194 642 225 676 q 140 568 164 607 q 104 494 117 529 q 90 445 97 476 q 85 388 83 414 q 100 351 86 363 q 149 361 114 340 q 193 394 169 374 q 238 433 217 414 q 274 470 258 453 q 296 494 290 488 q 313 499 301 504 q 336 483 325 494 q 354 458 347 471 q 357 436 361 444 q 343 402 353 424 q 321 353 333 381 q 294 296 308 326 q 265 235 279 265 q 203 122 233 172 q 151 57 172 71 q 106 46 128 39 q 67 73 85 53 q 37 122 50 93 q 16 177 24 151 q 6 222 8 203 q 10 242 4 240 q 41 240 24 244 q 63 208 58 235 q 68 185 64 200 q 76 153 72 169 q 85 125 81 138 q 90 110 89 113 q 115 101 99 90 q 152 140 132 111 q 194 208 172 168 q 233 288 215 249 q 264 358 251 326 q 279 400 276 389 q 230 367 253 383 q 186 336 207 350 q 147 314 165 322 q 111 306 128 306 q 61 328 82 307 q 33 384 40 349 q 32 466 25 419 q 65 563 39 513 q 110 634 83 597 q 170 703 138 671 q 240 761 203 736 q 318 799 278 786 q 358 801 336 804 q 402 790 381 799 q 442 770 424 782 q 468 747 460 758 q 483 699 485 726 q 471 643 482 672 q 442 583 460 614 q 406 521 424 551 q 363 522 382 517 q 346 536 343 528 z "},"\u0000":{"ha":0,"x_min":0,"x_max":0,"o":""},"\r":{"ha":481,"x_min":0,"x_max":0,"o":""}," ":{"ha":558,"x_min":0,"x_max":0,"o":""},"$":{"ha":532,"x_min":6,"x_max":549,"o":"m 139 -15 q 129 -7 135 -14 q 119 8 124 0 q 111 25 114 17 q 108 36 108 33 q 122 83 115 60 q 136 132 128 107 q 78 154 106 138 q 33 194 51 171 q 10 243 15 217 q 19 294 6 269 q 29 306 24 301 q 43 314 35 311 q 51 309 47 315 q 57 293 54 303 q 61 274 60 283 q 65 261 63 265 q 51 240 56 254 q 52 202 44 215 q 76 183 60 189 q 113 176 93 176 q 151 181 133 176 q 199 306 172 242 q 256 435 225 369 q 191 430 224 433 q 130 422 158 426 q 79 414 101 418 q 47 408 57 410 q 39 412 46 408 q 26 423 32 415 q 16 443 19 431 q 17 472 13 456 q 131 579 75 540 q 242 647 188 618 q 319 685 282 671 q 390 708 357 700 q 438 801 414 757 q 486 886 463 846 q 507 906 496 903 q 527 906 518 910 q 542 892 536 901 q 549 875 549 883 q 539 871 544 874 q 530 865 535 868 q 522 857 525 863 q 492 802 511 838 q 447 719 472 767 q 474 724 461 722 q 496 725 488 725 q 524 715 514 722 q 539 695 533 707 q 546 669 544 683 q 549 642 547 656 q 541 618 549 632 q 523 590 533 604 q 501 562 513 575 q 485 542 490 549 q 476 552 482 544 q 465 569 469 560 q 456 585 460 578 q 456 594 453 592 q 514 658 500 636 q 519 687 528 681 q 483 687 510 693 q 421 668 456 681 q 372 572 397 624 q 322 465 347 521 q 373 448 350 458 q 411 422 396 438 q 431 383 426 406 q 428 332 436 361 q 395 273 419 304 q 338 214 371 242 q 266 165 304 186 q 189 133 228 143 q 186 132 188 132 q 182 131 185 132 q 157 55 168 92 q 139 -15 146 18 m 274 474 q 313 558 293 517 q 354 640 333 600 q 306 617 328 628 q 274 599 285 606 q 235 577 258 590 q 188 549 213 564 q 140 517 163 533 q 104 489 117 501 q 92 470 83 469 q 118 474 101 471 q 191 478 149 478 q 274 474 233 479 m 307 433 q 254 316 279 375 q 207 199 229 257 q 304 261 260 222 q 360 318 336 289 q 392 375 383 347 q 374 417 400 404 q 307 433 349 431 z "},"%":{"ha":588,"x_min":22,"x_max":588,"o":"m 85 547 q 157 572 114 546 q 258 661 200 597 q 264 668 258 661 q 271 689 269 675 q 266 722 272 703 q 239 769 260 742 l 236 775 l 240 778 q 308 801 268 793 q 395 809 343 808 q 519 794 447 810 q 542 788 528 792 q 567 777 556 783 q 583 762 578 771 q 578 742 588 753 q 541 701 578 742 q 449 597 504 660 q 329 454 393 533 q 210 299 265 375 q 119 158 156 224 q 82 54 82 92 q 66 64 74 54 q 52 85 58 74 q 42 108 46 97 q 39 121 39 118 q 80 213 49 158 q 154 328 111 267 q 248 453 197 389 q 347 574 299 517 q 436 679 394 632 q 504 754 478 726 q 418 760 456 761 q 354 753 381 758 q 311 742 328 749 q 288 732 294 736 q 313 683 308 704 q 316 647 318 661 q 308 624 314 632 q 303 615 303 617 q 199 522 243 549 q 122 497 154 496 q 84 512 103 499 q 51 544 65 525 q 29 589 36 564 q 28 638 22 614 q 71 717 36 676 q 168 782 106 758 q 180 781 172 785 q 196 771 188 778 q 210 756 204 764 q 219 739 217 747 q 122 681 157 719 q 76 603 86 643 q 73 588 75 597 q 71 570 71 579 q 74 554 71 561 q 85 547 76 547 m 463 203 q 389 113 432 136 q 308 99 346 89 q 249 147 271 108 q 242 240 228 185 q 278 311 253 286 q 333 344 303 336 q 393 344 363 351 q 444 318 424 338 q 472 269 465 299 q 463 203 479 239 m 289 208 q 284 148 278 165 q 306 131 290 131 q 342 147 321 132 q 381 185 363 163 q 413 233 400 207 q 426 282 426 260 q 409 310 426 304 q 368 307 392 317 q 322 272 344 297 q 289 208 299 247 z "},"&":{"ha":978,"x_min":-17,"x_max":1008,"o":"m 665 778 q 733 842 701 808 q 788 904 761 869 q 828 972 815 939 q 831 1001 835 990 q 816 1017 826 1011 q 791 1024 806 1022 q 764 1026 776 1026 q 678 1014 726 1028 q 576 975 629 1000 q 470 917 522 950 q 373 849 418 885 q 296 776 328 813 q 251 710 264 740 q 227 628 224 656 q 253 592 231 601 q 311 590 275 583 q 387 608 347 596 q 463 633 426 619 q 524 656 500 647 q 537 654 529 657 q 549 646 544 651 q 553 633 553 640 q 546 621 554 626 q 467 583 507 597 q 364 553 426 568 q 331 537 358 551 q 268 497 304 522 q 190 436 232 471 q 114 361 149 401 q 56 276 79 321 q 32 188 32 232 q 35 151 32 167 q 50 124 39 135 q 135 81 86 89 q 240 83 185 74 q 350 116 294 93 q 454 167 406 139 q 540 225 503 196 q 596 276 578 254 q 606 417 579 343 q 706 549 632 490 q 624 520 668 540 q 539 480 579 500 q 469 444 499 460 q 435 426 440 428 q 414 439 422 433 q 403 451 407 444 q 406 464 399 457 q 515 543 443 511 q 669 595 588 575 q 832 624 751 615 q 968 638 913 633 q 994 621 982 639 q 1008 592 1007 603 q 783 567 881 583 q 797 517 800 546 q 747 393 789 458 q 651 268 704 328 q 673 207 653 233 q 727 164 693 181 q 806 142 761 147 q 901 144 851 138 q 908 138 904 144 q 914 119 911 131 q 919 97 917 108 q 924 76 921 85 q 806 69 858 63 q 714 96 753 75 q 649 151 675 117 q 614 228 624 185 q 552 169 582 196 q 491 122 522 143 q 426 83 460 101 q 351 50 392 65 q 272 28 313 35 q 192 23 231 21 q 117 36 153 25 q 56 69 82 47 q -4 163 8 115 q -4 256 -17 210 q 40 347 8 303 q 112 431 72 392 q 194 501 151 469 q 269 553 236 532 q 204 600 225 574 q 182 664 182 631 q 194 729 182 697 q 228 789 207 761 q 268 836 249 817 q 361 915 308 875 q 472 988 414 954 q 588 1044 529 1021 q 700 1072 647 1067 q 795 1063 753 1078 q 863 1006 838 1047 q 873 957 876 982 q 858 908 869 932 q 828 860 846 882 q 788 817 810 838 q 743 779 767 797 q 697 742 719 761 l 665 778 m 660 347 q 726 458 696 408 q 763 538 757 507 l 751 526 q 695 447 719 494 q 660 347 671 400 z "},"@":{"ha":518,"x_min":-31,"x_max":532,"o":"m 415 250 q 367 206 399 233 q 297 151 336 179 q 215 99 258 122 q 131 66 172 76 q 52 65 89 56 q -11 111 15 74 q -31 200 -31 143 q -25 259 -31 228 q -11 325 -19 290 q 49 469 10 399 q 138 597 88 539 q 243 697 188 656 q 351 754 299 739 q 415 760 383 764 q 471 741 446 757 q 512 697 496 725 q 531 629 528 669 q 516 553 532 596 q 474 467 500 510 q 419 389 449 425 q 364 336 389 353 q 315 319 340 321 q 260 344 289 318 l 251 331 q 209 258 232 296 q 154 200 186 221 q 125 194 142 192 q 91 203 108 196 q 58 221 74 210 q 36 240 43 232 q 32 204 33 221 q 29 172 31 188 q 52 106 29 119 q 110 106 75 93 q 188 148 146 118 q 269 211 231 178 q 336 272 307 244 q 374 308 365 300 q 385 305 378 313 q 398 286 392 297 q 410 264 404 275 q 415 250 415 253 m 314 379 q 390 468 343 406 q 454 574 435 526 q 471 657 474 621 q 461 701 469 685 q 433 717 453 717 q 366 700 401 717 q 297 660 331 683 q 235 610 264 636 q 189 563 207 583 q 240 574 210 574 q 297 559 271 574 q 337 516 324 544 q 333 443 350 488 q 314 379 319 411 m 169 454 q 134 402 150 429 q 107 349 118 375 q 89 299 96 322 q 82 258 82 275 q 98 242 82 235 q 137 274 114 249 q 186 335 160 299 q 235 409 213 372 q 269 476 257 446 q 278 519 282 507 q 249 517 274 531 q 169 454 224 504 z "},"`":{"ha":415,"x_min":110,"x_max":317,"o":"m 113 831 q 115 841 110 836 q 126 850 119 846 q 140 856 133 854 q 146 858 146 858 q 181 840 157 854 q 231 807 204 825 q 280 772 257 789 q 314 747 303 756 q 313 740 317 744 q 301 731 308 736 q 283 718 294 725 q 249 743 274 725 q 198 780 225 761 q 147 813 171 799 q 113 831 122 828 z "},"€":{"ha":756,"x_min":8,"x_max":774,"o":"m 678 594 q 710 713 713 674 q 681 763 707 753 q 613 759 656 774 q 522 717 569 744 q 431 651 475 689 q 360 579 388 614 q 338 549 349 563 q 457 550 404 551 q 532 539 510 549 q 561 507 550 521 q 572 489 569 496 q 558 489 574 482 q 518 497 544 494 q 456 499 492 499 q 381 497 421 499 q 299 492 340 494 l 272 446 q 362 458 314 453 q 464 468 410 463 q 472 463 465 468 q 486 449 479 457 q 499 433 493 442 q 506 419 506 425 q 373 405 439 413 q 240 386 307 397 q 219 340 229 363 q 200 294 208 318 q 169 149 165 199 q 203 87 172 100 q 288 92 235 74 q 407 150 342 110 q 499 215 457 182 q 561 275 540 249 q 575 263 567 271 q 590 247 583 256 q 599 229 596 238 q 597 215 603 221 q 540 166 574 192 q 468 117 506 140 q 384 76 432 96 q 288 50 336 56 q 194 58 239 44 q 122 117 150 71 q 106 226 96 158 q 153 372 117 293 q 92 359 117 365 q 56 350 67 353 q 44 353 51 349 q 31 365 38 357 q 17 381 24 372 q 8 396 10 389 q 54 407 28 401 q 109 419 76 413 q 185 433 142 426 l 215 485 q 131 473 174 481 q 63 454 88 465 q 53 465 60 457 q 40 481 46 472 q 29 496 33 489 q 29 506 25 503 q 56 515 35 510 q 107 526 76 521 q 176 535 138 531 q 256 543 214 539 q 343 651 296 600 q 439 740 390 701 q 535 801 488 778 q 626 824 583 824 q 704 799 669 824 q 763 718 739 775 q 767 642 774 688 q 728 535 760 597 q 713 543 722 538 q 694 557 703 549 q 679 575 685 565 q 678 594 674 585 z "},"¢":{"ha":468,"x_min":7,"x_max":440,"o":"m 381 565 q 396 644 404 622 q 361 667 388 667 q 288 508 328 596 q 213 317 249 421 q 217 320 215 319 q 222 322 219 321 q 278 358 254 342 q 318 390 303 375 q 326 381 321 388 q 336 367 332 375 q 342 353 340 360 q 342 343 344 346 q 304 312 326 328 q 257 281 282 296 q 228 264 244 272 q 192 249 211 256 q 160 130 172 186 q 146 25 147 74 q 133 29 140 25 q 117 39 125 33 q 104 50 110 44 q 99 58 99 56 q 131 235 103 136 q 71 236 99 229 q 24 268 43 243 q 11 326 7 288 q 35 410 15 364 q 85 503 54 456 q 154 593 117 551 q 233 664 192 635 q 314 701 275 693 l 365 804 q 373 803 367 807 q 388 792 379 799 q 403 780 396 786 q 414 772 411 774 q 403 751 408 763 q 390 727 397 740 q 375 696 383 714 q 432 642 408 681 q 438 597 440 624 q 415 533 435 569 q 406 538 413 535 q 392 544 399 540 q 381 554 385 549 q 381 565 378 560 m 285 640 q 156 512 203 579 q 72 368 110 444 q 53 317 58 340 q 56 279 49 293 q 84 265 63 265 q 144 285 106 265 q 208 464 172 379 q 285 640 244 549 z "},"£":{"ha":494,"x_min":-44,"x_max":535,"o":"m 92 463 q 158 477 125 472 q 219 485 192 482 l 256 583 q 292 669 274 633 q 328 731 310 704 q 373 784 351 767 q 411 808 394 801 q 456 817 433 819 q 497 802 479 815 q 525 766 515 789 q 532 714 535 743 q 525 672 531 693 q 512 634 519 651 q 494 603 504 617 q 472 583 483 589 q 463 595 469 589 q 451 608 457 601 q 441 619 444 614 q 442 629 438 625 q 476 699 465 658 q 481 763 486 739 q 450 779 475 788 q 378 703 425 771 q 343 642 361 678 q 307 557 325 606 q 282 486 292 519 q 313 485 300 486 q 336 482 326 483 q 343 478 336 482 q 357 469 350 475 q 369 457 364 464 q 372 444 374 450 q 354 447 367 446 q 323 448 343 449 q 267 446 303 447 l 263 431 q 231 340 246 379 q 197 264 217 300 q 217 237 213 257 q 226 195 222 217 q 235 156 229 174 q 258 138 240 139 q 309 157 275 136 q 403 232 343 178 q 410 229 404 233 q 423 219 417 225 q 435 206 429 213 q 444 194 442 199 q 393 153 418 174 q 338 119 368 133 q 286 109 314 108 q 235 120 258 110 q 194 152 211 131 q 176 207 178 174 q 175 226 176 221 q 122 146 157 186 q 39 82 88 106 q 18 82 32 79 q -10 90 4 85 q -34 104 -24 96 q -43 122 -44 113 q -19 180 -39 146 q 30 243 1 214 q 89 288 58 272 q 144 289 119 303 q 177 360 164 322 q 207 443 190 397 q 158 436 175 440 q 129 429 140 432 q 113 421 117 425 q 102 424 108 418 q 92 437 96 429 q 86 452 88 444 q 92 463 85 460 m 61 207 q 24 149 31 167 q 27 132 18 132 q 56 146 36 132 q 97 183 75 160 q 131 232 128 217 q 124 248 135 247 q 95 238 114 249 q 61 207 76 226 z "},"¥":{"ha":611,"x_min":31,"x_max":590,"o":"m 267 513 q 326 599 299 561 q 383 672 354 638 q 442 739 411 706 q 508 814 472 772 q 538 831 521 828 q 569 831 556 835 q 586 817 582 826 q 576 797 590 807 q 528 755 558 785 q 462 682 499 725 q 385 584 425 639 q 306 467 344 529 l 297 453 q 401 456 353 456 q 482 450 450 456 q 512 431 496 449 q 524 399 528 413 q 483 402 511 401 q 419 403 456 403 q 342 401 383 403 q 261 394 301 399 q 244 369 253 382 q 229 344 236 357 q 335 349 286 353 q 341 343 335 349 q 354 331 347 338 q 366 315 361 324 q 369 299 371 306 q 329 301 354 301 q 275 298 308 301 q 194 288 242 294 q 110 110 138 190 q 122 72 103 89 q 103 67 114 63 q 83 81 93 71 q 67 104 74 92 q 64 122 61 117 q 88 192 71 153 q 125 272 104 231 q 97 261 106 265 q 83 253 88 257 q 79 244 78 247 q 67 247 75 242 q 53 262 60 253 q 44 281 47 271 q 49 297 42 290 q 72 312 57 306 q 103 322 86 318 q 135 330 119 326 q 158 335 150 333 q 173 360 165 347 q 188 385 181 374 q 136 375 160 381 q 97 363 113 369 q 74 349 81 357 q 72 332 67 342 q 57 337 68 329 q 38 357 46 344 q 34 384 31 369 q 63 411 38 399 q 132 432 89 424 q 226 447 175 440 l 231 456 q 163 459 193 449 q 115 491 133 469 q 89 545 96 513 q 89 615 82 578 q 110 689 96 651 q 138 760 124 726 q 165 817 153 793 q 183 851 178 842 q 197 851 186 857 q 216 834 207 844 q 229 812 225 824 q 222 794 233 800 q 219 799 221 797 q 213 797 215 803 q 190 751 203 779 q 164 691 176 724 q 141 625 151 658 q 128 561 131 592 q 136 507 124 524 q 169 488 149 490 q 217 494 190 486 q 267 513 243 501 z "},"~":{"ha":585,"x_min":79,"x_max":496,"o":"m 354 325 q 408 367 381 343 q 451 413 436 390 q 462 407 454 411 q 478 398 469 403 q 491 388 486 393 q 494 378 496 382 q 456 335 481 357 q 406 296 431 314 q 362 267 381 278 q 343 256 343 256 q 330 258 338 253 q 316 269 322 263 q 306 283 310 276 q 301 290 301 290 q 304 395 313 365 q 276 424 296 425 q 231 399 257 422 q 183 343 206 375 q 142 279 160 311 q 122 231 125 247 q 107 237 115 232 q 92 248 99 242 q 83 260 86 254 q 79 271 79 267 q 115 344 89 308 q 173 407 140 381 q 240 447 206 433 q 302 455 275 461 q 344 418 329 449 q 354 325 360 388 z "},"^":{"ha":521,"x_min":174,"x_max":458,"o":"m 179 778 q 199 808 186 789 q 236 856 213 828 q 276 899 253 875 q 329 951 299 924 q 390 985 357 979 q 447 968 424 992 q 448 910 458 954 q 422 818 438 867 q 401 743 410 778 q 397 700 392 708 q 381 699 390 694 q 364 710 372 703 q 343 728 354 717 q 349 772 342 744 q 365 830 356 800 q 383 889 374 860 q 397 939 393 918 q 356 899 383 926 q 299 841 328 872 q 249 780 271 810 q 224 733 226 750 q 208 738 218 735 q 190 747 199 742 q 178 760 182 753 q 179 778 174 768 z "},"_":{"ha":585,"x_min":14,"x_max":461,"o":"m 451 21 q 401 15 435 18 q 327 9 368 13 q 243 2 286 6 q 162 -5 200 -1 q 96 -12 124 -8 q 60 -19 68 -17 q 44 -24 53 -22 q 29 -24 36 -26 q 18 -15 22 -22 q 14 10 14 -7 q 41 19 14 14 q 110 28 68 24 q 201 36 151 32 q 294 44 250 40 q 372 49 339 47 q 417 53 406 51 q 433 50 422 54 q 450 40 443 46 q 459 28 457 33 q 451 21 461 22 z "},"?":{"ha":588,"x_min":57,"x_max":635,"o":"m 81 761 q 165 846 117 810 q 268 907 214 882 q 377 947 322 932 q 481 967 432 961 q 587 958 551 974 q 628 910 622 942 q 613 835 635 878 q 549 744 592 792 q 456 653 507 699 q 358 560 406 607 q 271 464 310 514 q 214 358 232 414 q 213 296 197 308 l 213 293 q 195 288 206 285 q 174 300 185 292 q 156 318 164 308 q 144 335 147 328 q 147 403 129 364 q 204 488 165 443 q 296 581 243 533 q 401 674 349 628 q 500 763 454 721 q 572 838 546 804 q 597 895 599 872 q 554 925 596 918 q 485 921 529 929 q 390 894 442 913 q 287 851 339 876 q 194 795 235 825 q 129 734 153 765 q 113 674 106 703 q 61 709 65 692 q 81 761 57 726 m 124 214 q 133 215 125 217 q 152 208 142 213 q 171 199 163 204 q 182 193 179 194 q 163 153 171 171 q 150 122 156 138 q 147 100 144 107 q 108 114 119 101 q 97 143 97 126 q 105 178 97 160 q 124 214 113 197 z "},">":{"ha":567,"x_min":56,"x_max":451,"o":"m 161 467 q 141 486 147 479 q 128 511 135 493 q 198 494 163 501 q 267 476 233 486 q 333 452 301 467 q 393 414 365 438 q 424 384 410 399 q 444 357 438 369 q 451 335 451 344 q 442 322 451 325 q 333 273 381 292 q 247 243 286 254 q 153 224 188 225 q 106 225 119 224 q 96 230 104 225 q 78 242 88 235 q 62 259 68 250 q 58 276 56 268 q 73 274 58 276 q 123 278 88 272 q 219 306 158 285 q 374 374 279 326 q 376 388 386 379 q 344 406 367 396 q 290 427 321 417 q 232 446 260 438 q 184 460 204 454 q 161 467 164 465 z "},"=":{"ha":433,"x_min":75,"x_max":333,"o":"m 83 476 q 138 480 111 479 q 192 479 164 481 q 299 471 244 479 q 304 465 300 471 q 313 452 308 460 q 322 436 318 444 q 325 422 325 428 q 218 430 272 429 q 111 426 164 431 q 105 432 110 426 q 95 446 100 438 q 87 463 90 454 q 83 476 83 471 m 75 369 q 186 382 129 379 q 242 384 214 383 q 299 383 271 385 q 306 378 300 383 q 317 365 311 372 q 328 351 324 358 q 333 338 333 343 q 110 326 224 343 q 103 331 108 326 q 92 344 97 336 q 81 358 86 351 q 75 369 76 365 z "},"<":{"ha":660,"x_min":126,"x_max":506,"o":"m 439 267 q 463 250 454 256 q 481 229 471 244 q 408 233 444 232 q 337 237 372 233 q 267 248 301 240 q 201 274 233 256 q 166 297 182 285 q 140 319 150 308 q 128 340 131 331 q 136 354 126 349 q 232 422 189 394 q 311 469 275 450 q 400 505 367 497 q 447 514 433 513 q 458 510 449 514 q 478 501 467 507 q 497 488 489 496 q 504 472 506 481 q 490 472 504 472 q 441 459 475 472 q 351 413 407 446 q 213 317 296 381 q 212 302 200 308 q 248 290 224 296 q 304 281 272 285 q 365 273 336 276 q 415 268 394 269 q 439 267 436 267 z "},";":{"ha":349,"x_min":33,"x_max":228,"o":"m 33 104 q 82 168 64 131 q 103 243 100 206 q 114 245 104 247 q 136 239 124 243 q 159 231 149 235 q 172 226 169 226 q 154 175 165 200 q 129 128 144 153 q 90 83 114 103 q 80 85 89 82 q 60 91 71 88 q 42 98 50 94 q 33 104 33 101 m 169 417 q 180 417 171 419 q 199 410 189 415 q 217 401 208 406 q 228 394 225 396 q 222 385 228 394 q 208 363 215 375 q 196 340 201 351 q 193 322 190 328 q 181 317 190 315 q 161 324 171 319 q 142 341 146 329 q 141 366 138 353 q 153 392 144 379 q 169 417 161 406 z "},"[":{"ha":315,"x_min":-54,"x_max":547,"o":"m 104 -22 q 117 -28 107 -22 q 138 -42 126 -33 q 157 -59 149 -50 q 167 -74 165 -68 q 113 -74 149 -74 q 40 -69 76 -75 q -24 -51 4 -64 q -53 -8 -51 -37 q -28 125 -54 40 q 41 313 -1 210 q 136 531 83 417 q 241 749 189 644 q 339 940 293 853 q 413 1078 385 1026 q 426 1079 414 1079 q 454 1078 439 1079 q 483 1076 469 1078 q 501 1074 497 1074 q 530 1047 513 1063 q 547 1018 547 1032 l 460 1024 q 434 978 454 1015 q 384 883 414 940 q 317 753 354 826 q 240 600 279 681 q 163 435 201 519 q 91 269 124 350 q 35 116 58 189 q 1 -12 11 43 q 12 -30 -1 -26 q 42 -33 25 -33 q 78 -28 60 -32 q 104 -22 96 -24 z "},"z":{"ha":633,"x_min":-97,"x_max":654,"o":"m 76 472 q 144 558 106 519 q 225 626 182 597 q 312 672 268 654 q 393 694 356 690 q 477 681 444 700 q 524 625 510 661 q 533 540 538 589 q 504 440 528 492 l 539 436 q 545 429 540 436 q 554 414 550 422 q 561 396 558 406 q 563 379 564 386 q 476 390 514 390 q 399 284 443 335 q 311 192 356 233 q 372 178 332 178 q 458 196 411 179 q 552 246 504 213 q 638 329 600 279 q 649 306 643 322 q 650 283 654 289 q 553 193 606 225 q 449 147 501 161 q 347 135 396 133 q 263 149 299 138 l 261 149 q 100 40 185 81 q 69 28 90 35 q 23 17 47 21 q -26 13 -1 13 q -67 24 -50 14 q -91 55 -85 33 q -86 113 -97 76 q -60 156 -79 133 q -7 197 -40 178 q 64 226 31 218 q 127 233 97 233 q 185 225 157 232 q 242 211 214 218 q 273 237 257 224 q 304 264 289 250 q 363 327 335 296 q 414 390 390 358 q 371 386 392 390 q 317 371 336 379 q 290 356 297 363 q 283 360 289 356 q 272 374 278 365 q 263 392 267 382 q 260 408 258 401 q 307 431 279 421 q 367 445 331 439 q 451 449 403 451 q 462 465 457 456 q 471 481 467 474 q 502 609 519 574 q 401 631 485 644 q 318 606 363 625 q 231 555 274 586 q 149 481 188 524 q 86 386 111 438 q 75 403 79 392 q 70 428 71 415 q 71 453 69 442 q 76 472 72 465 m 189 168 q 107 170 149 175 q 17 138 65 165 q -32 103 -14 122 q -57 67 -50 85 q -4 67 -37 60 q 78 99 29 74 q 189 168 138 131 z "},"{":{"ha":385,"x_min":15,"x_max":707,"o":"m 693 978 q 662 991 679 997 q 626 964 644 985 q 588 912 607 943 q 551 849 568 881 q 522 791 535 818 q 501 751 508 764 q 447 663 472 701 q 394 592 422 624 q 331 531 365 560 q 251 468 297 501 q 200 431 221 446 q 179 415 179 417 q 203 385 189 408 q 217 317 217 363 q 193 199 217 271 q 101 19 169 126 q 76 -39 75 -25 q 131 -22 78 -53 q 142 -26 135 -21 q 157 -42 149 -32 q 173 -61 165 -51 q 183 -75 181 -71 q 113 -105 146 -100 q 67 -108 81 -110 q 53 -101 60 -108 q 39 -85 46 -94 q 27 -66 32 -75 q 21 -51 22 -57 q 21 -14 15 -36 q 35 28 26 8 q 52 63 43 49 q 61 78 61 78 q 124 195 103 144 q 154 285 146 246 q 161 351 163 324 q 156 399 160 379 q 148 398 154 399 q 133 396 142 397 q 113 392 124 394 q 104 400 111 392 q 90 419 97 408 q 81 440 83 429 q 86 454 78 450 q 165 502 124 475 q 244 558 206 529 q 315 618 282 588 q 371 678 349 649 q 406 731 386 697 q 449 803 426 764 q 494 883 471 842 q 541 960 518 925 q 583 1019 564 994 q 617 1051 603 1044 q 647 1048 628 1057 q 680 1025 665 1039 q 701 997 694 1011 q 694 974 707 982 l 693 978 z "},"|":{"ha":231,"x_min":-24,"x_max":235,"o":"m 28 -18 q 15 -19 24 -22 q -3 -9 6 -15 q -17 4 -11 -3 q -24 14 -24 11 q -6 139 -22 63 q 32 298 10 215 q 78 457 54 381 q 119 583 101 533 q 142 664 131 617 q 165 756 154 711 q 188 863 176 807 q 200 858 192 863 q 216 848 208 854 q 229 835 224 842 q 233 826 235 829 q 194 660 217 743 q 147 494 171 576 q 98 330 122 413 q 54 164 74 247 q 43 115 47 136 q 37 72 39 93 q 33 30 35 51 q 28 -18 31 8 z "},"}":{"ha":613,"x_min":-93,"x_max":600,"o":"m -76 -33 q -47 -47 -64 -53 q -10 -21 -29 -42 q 28 31 10 0 q 64 94 47 63 q 94 152 81 125 q 114 192 107 179 q 168 281 143 242 q 222 351 193 319 q 284 413 250 383 q 364 476 318 443 q 415 512 394 497 q 436 529 436 526 q 412 559 426 536 q 397 627 397 582 q 422 744 397 672 q 514 924 446 817 q 540 982 542 968 q 485 965 538 996 q 474 969 481 963 q 458 985 467 976 q 443 1004 450 994 q 433 1018 436 1014 q 502 1049 469 1044 q 550 1053 535 1053 q 563 1045 556 1053 q 576 1028 569 1038 q 587 1010 582 1019 q 594 994 592 1000 q 594 957 600 979 q 581 915 589 935 q 563 880 572 894 q 554 865 554 865 q 490 747 513 799 q 460 658 468 696 q 453 592 451 619 q 460 544 456 564 q 468 544 461 543 q 482 547 475 546 q 501 551 490 549 q 510 543 503 551 q 524 524 517 535 q 534 503 531 514 q 529 489 538 493 q 451 441 492 468 q 372 385 410 414 q 300 326 333 356 q 244 267 267 296 q 209 214 229 247 q 167 141 189 181 q 121 60 144 101 q 75 -16 97 19 q 33 -76 53 -51 q 0 -107 14 -101 q -30 -104 -11 -112 q -65 -82 -49 -96 q -87 -53 -81 -68 q -79 -31 -93 -37 l -76 -33 z "},"]":{"ha":371,"x_min":-128,"x_max":474,"o":"m 314 1018 q 301 1024 311 1018 q 281 1038 292 1029 q 262 1055 271 1046 q 251 1069 253 1064 q 306 1070 269 1069 q 378 1066 342 1071 q 442 1047 415 1061 q 472 1006 469 1033 q 458 912 474 969 q 417 783 443 854 q 357 630 392 711 q 283 465 322 549 q 204 301 244 382 q 127 147 164 219 q 58 16 90 75 q 6 -81 26 -43 q -8 -83 4 -83 q -35 -82 -19 -83 q -64 -79 -50 -81 q -82 -78 -78 -78 q -110 -51 -93 -67 q -128 -22 -128 -36 l -40 -28 q -1 44 -33 -17 q 78 195 32 106 q 179 395 125 285 q 282 617 233 506 q 367 831 331 728 q 418 1008 404 933 q 408 1026 421 1022 q 376 1028 394 1029 q 340 1024 358 1028 q 314 1018 322 1019 z "},"\\":{"ha":576,"x_min":-31,"x_max":536,"o":"m -1 1079 q 78 876 26 986 q 189 653 129 765 q 310 438 249 542 q 422 252 372 333 q 504 122 472 171 q 536 72 536 72 q 530 58 533 69 q 523 33 526 46 q 515 12 519 21 q 510 6 511 3 q 368 230 446 104 q 215 491 290 356 q 74 762 139 626 q -29 1014 8 897 q -28 1028 -31 1018 q -21 1048 -25 1038 q -11 1067 -17 1058 q -1 1079 -6 1076 z "},"×":{"ha":540,"x_min":44,"x_max":408,"o":"m 44 286 q 172 400 100 353 l 110 449 q 109 469 106 451 q 118 497 113 486 q 162 465 139 482 q 208 428 185 447 q 283 470 244 451 q 364 508 322 489 q 371 505 365 508 q 383 495 376 501 q 397 482 390 489 q 408 469 404 475 q 335 433 374 454 q 257 386 296 413 q 303 344 281 365 q 344 304 325 324 q 346 285 347 301 q 336 257 344 268 q 222 363 281 313 q 94 253 153 314 q 87 253 93 250 q 73 263 81 257 q 57 275 65 268 q 44 286 49 282 z "},"÷":{"ha":547,"x_min":65,"x_max":446,"o":"m 65 385 q 151 388 108 388 q 233 388 193 389 q 319 385 278 386 q 403 379 361 383 q 411 372 404 379 q 426 356 418 365 q 440 337 435 347 q 446 321 446 326 q 277 331 361 329 q 110 326 193 333 q 99 333 107 326 q 84 349 92 340 q 71 368 76 358 q 65 385 65 378 m 238 467 q 255 497 240 478 q 278 525 269 515 q 291 524 281 528 q 314 515 301 521 q 337 502 326 508 q 350 494 347 496 q 326 471 336 482 q 313 451 318 461 q 310 435 307 440 q 294 432 306 428 q 269 443 282 436 q 247 458 257 450 q 238 467 238 465 m 185 254 q 201 283 188 265 q 224 311 214 301 q 238 310 226 314 q 260 301 249 307 q 283 288 272 294 q 297 281 294 282 q 290 273 297 281 q 274 256 282 265 q 259 236 265 246 q 256 222 253 226 q 240 219 251 215 q 215 231 228 224 q 193 245 203 238 q 185 254 183 253 z "},"x":{"ha":578,"x_min":-15,"x_max":636,"o":"m 636 633 q 554 563 599 610 q 464 464 510 517 q 375 360 418 411 q 300 278 332 310 q 301 193 292 219 q 333 165 310 167 q 394 181 357 163 q 481 229 432 200 q 488 224 482 231 q 499 210 493 218 q 509 192 504 201 q 517 179 514 183 q 422 134 467 151 q 340 117 376 117 q 280 142 304 118 q 247 222 256 167 q 172 124 207 172 q 108 32 136 76 q 99 28 106 26 q 85 35 92 31 q 71 44 78 39 q 60 51 64 50 q 145 169 97 110 q 242 299 193 228 q 253 417 243 360 q 256 529 264 474 q 231 564 250 563 q 188 545 213 565 q 138 490 164 525 q 90 416 111 454 q 55 342 68 378 q 44 285 42 306 q 21 289 32 282 q 1 306 10 296 q -11 327 -7 315 q -12 347 -15 339 q 11 413 -6 376 q 51 483 28 449 q 99 547 74 517 q 149 593 125 576 q 224 617 192 622 q 278 582 257 611 q 308 506 300 553 q 311 410 317 460 q 308 385 310 397 q 304 360 306 372 q 387 457 342 404 q 473 556 432 510 q 546 633 514 601 q 590 669 578 665 q 617 658 603 674 q 636 633 632 643 z "},"v":{"ha":379,"x_min":-35,"x_max":456,"o":"m 146 219 q 261 398 197 285 q 408 678 325 511 q 421 671 413 675 q 438 660 429 667 q 451 649 446 654 q 453 639 456 643 q 312 374 374 481 q 200 204 250 267 q 149 150 181 181 q 86 107 118 119 q 35 106 58 96 q -12 139 11 117 q -34 191 -33 157 q -24 266 -35 225 q 4 349 -14 307 q 40 426 22 392 q 71 483 58 461 q 83 506 83 506 q 95 501 86 504 q 112 492 104 499 q 124 476 119 486 q 119 453 128 467 q 81 376 103 422 q 44 285 60 331 q 22 190 25 228 q 33 140 19 151 q 76 147 47 129 q 146 219 104 165 z "},"u":{"ha":494,"x_min":-22,"x_max":525,"o":"m 382 557 q 395 567 386 568 q 413 560 404 567 q 435 539 422 553 q 410 490 425 518 q 380 433 396 461 q 351 378 364 404 q 333 336 339 353 q 327 230 310 264 q 396 229 344 196 q 442 269 417 243 q 499 343 468 294 q 508 332 503 338 q 518 320 514 326 q 524 308 522 314 q 519 294 525 301 q 459 225 492 258 q 381 178 426 192 q 346 177 363 171 q 315 197 329 183 q 290 228 301 210 q 272 264 279 246 q 242 216 260 240 q 206 169 225 192 q 167 130 186 147 q 132 104 147 113 q 94 97 114 96 q 54 106 74 97 q 18 133 35 115 q -7 174 1 150 q -17 262 -22 214 q 6 358 -11 310 q 46 453 22 407 q 92 533 69 499 q 130 590 114 568 q 146 611 146 611 q 160 606 149 608 q 181 600 171 604 q 197 589 192 596 q 192 569 201 582 q 160 522 178 551 q 124 458 142 493 q 89 385 106 422 q 60 317 72 349 q 39 235 42 274 q 44 169 36 196 q 69 135 53 143 q 110 144 86 126 q 183 224 142 169 q 263 342 224 279 q 333 464 301 404 q 382 557 365 524 z "},"t":{"ha":296,"x_min":-43,"x_max":507,"o":"m -39 547 q -12 558 -31 551 q 42 569 6 564 q 135 582 97 578 q 220 704 175 644 q 310 813 265 764 q 396 896 354 861 q 471 943 438 931 q 481 939 475 944 q 492 925 486 933 q 502 909 497 917 q 507 897 507 901 q 440 861 478 889 q 363 792 403 833 q 281 698 322 750 q 200 589 239 646 q 250 592 225 592 q 303 593 275 593 q 364 592 331 593 q 440 589 397 590 q 472 573 454 589 q 488 542 489 557 q 435 544 469 543 q 356 544 400 544 q 262 544 311 544 q 167 540 213 543 q 128 478 147 508 q 94 418 110 449 q 63 357 81 393 q 31 282 46 321 q 5 208 15 243 q -6 149 -6 172 q 8 117 -6 125 q 53 126 21 108 q 114 170 79 142 q 184 231 149 199 q 251 292 219 263 q 301 336 282 321 q 316 323 307 340 q 326 293 325 306 q 276 239 310 274 q 203 170 242 204 q 129 108 165 136 q 72 72 93 79 q 18 74 40 60 q -18 114 -4 88 q -35 174 -32 140 q -33 236 -39 208 q 15 372 -22 293 q 104 535 51 450 q 18 519 51 529 q -12 494 -15 510 q -24 497 -18 490 q -35 515 -31 504 q -41 535 -39 525 q -39 547 -43 544 z "},"r":{"ha":490,"x_min":-82,"x_max":453,"o":"m 224 586 q 203 574 217 590 q 176 538 190 558 q 150 497 161 517 q 138 474 139 478 q 90 391 117 438 q 40 294 64 344 q -3 192 15 243 q -29 99 -22 142 q 35 192 -1 138 q 110 302 71 247 q 190 401 149 357 q 269 464 231 446 q 282 465 274 467 q 299 460 290 464 q 313 451 307 457 q 317 436 318 444 q 319 365 310 390 q 349 328 329 339 q 396 322 369 318 q 449 340 422 325 q 450 315 453 333 q 438 292 447 296 q 386 282 414 279 q 334 299 358 285 q 291 340 310 314 q 267 401 272 365 q 213 345 240 378 q 160 276 186 313 q 108 203 133 239 q 63 138 83 167 q 22 76 38 101 q 0 51 7 51 q -17 58 -6 51 q -43 73 -29 64 q -68 91 -57 82 q -82 106 -79 100 q -64 187 -79 146 q -33 263 -49 228 q -12 310 -26 279 q 21 377 3 340 q 60 453 39 414 q 101 526 81 493 q 141 584 122 560 q 175 615 160 608 q 185 615 175 615 q 206 610 194 614 q 223 601 217 607 q 224 586 229 596 z "},"q":{"ha":753,"x_min":-24,"x_max":769,"o":"m 540 586 q 469 497 508 557 q 390 363 431 438 q 313 206 350 289 q 245 49 275 124 q 197 -85 215 -25 q 178 -175 178 -146 q 226 -96 196 -150 q 294 26 257 -42 q 372 165 331 93 q 451 300 413 238 q 525 407 490 363 q 586 464 560 451 q 599 465 590 467 q 615 460 607 464 q 629 451 624 457 q 633 436 635 444 q 636 365 626 390 q 666 328 646 339 q 713 322 686 318 q 765 340 739 325 q 767 315 769 333 q 754 292 764 296 q 703 282 731 279 q 651 299 675 285 q 608 340 626 314 q 583 401 589 365 q 533 329 563 376 q 470 224 504 282 q 401 103 436 167 q 333 -19 365 39 q 273 -124 300 -76 q 229 -197 246 -172 q 207 -222 211 -222 q 190 -216 201 -222 q 164 -201 178 -210 q 139 -183 150 -192 q 125 -168 128 -174 q 142 -95 126 -147 q 182 26 157 -43 q 240 177 207 96 q 314 339 274 258 q 267 300 286 318 q 227 265 247 282 q 181 228 207 247 q 115 185 156 208 q 47 178 78 163 q -4 228 15 194 q -14 300 -24 260 q 19 381 -4 340 q 57 436 29 401 q 122 506 85 471 q 203 570 160 540 q 289 610 247 600 q 367 607 331 621 q 425 543 403 593 l 436 556 q 465 593 451 578 q 492 615 479 608 q 501 615 492 615 q 522 610 511 614 q 540 601 533 607 q 540 586 546 596 m 156 297 q 237 367 194 329 q 315 437 279 404 q 374 494 350 469 q 403 522 399 518 q 348 565 386 565 q 265 541 310 565 q 178 478 221 517 q 111 408 136 440 q 57 324 79 367 q 33 256 35 281 q 60 238 32 232 q 156 297 88 243 z "},"p":{"ha":535,"x_min":-239,"x_max":554,"o":"m 93 294 q 64 264 78 279 q 35 231 50 249 q -41 135 -8 179 q -101 44 -74 90 q -152 -51 -128 -1 q -206 -164 -176 -101 q -212 -162 -207 -167 q -222 -151 -217 -157 q -233 -138 -228 -144 q -237 -131 -237 -132 q -215 -55 -239 -111 q -151 75 -190 1 q -62 231 -111 149 q 33 385 -14 314 q 119 506 81 456 q 179 567 158 556 q 192 559 185 569 q 204 536 200 549 q 208 516 208 524 q 196 518 207 508 q 178 509 192 522 q 147 474 164 496 q 110 423 129 451 q 74 368 92 394 q 44 322 57 342 q 29 297 32 303 q 76 342 46 314 q 145 403 107 371 q 226 468 183 436 q 312 524 269 500 q 392 561 354 549 q 457 567 429 574 q 487 536 479 561 q 488 479 494 511 q 467 413 482 451 q 436 344 451 375 q 492 344 465 344 q 546 344 518 343 q 549 327 554 344 q 538 301 544 310 q 503 302 517 301 q 476 303 489 303 q 450 303 464 303 q 415 303 436 303 q 354 231 390 265 q 278 181 318 197 q 199 171 238 164 q 133 197 161 178 q 92 244 104 217 q 93 294 81 271 m 121 319 q 135 326 129 325 q 175 335 149 332 q 235 341 201 339 q 308 344 269 343 q 386 344 347 344 q 426 419 410 383 q 443 478 443 456 q 422 507 443 501 q 350 489 400 513 q 292 457 324 478 q 229 411 261 436 q 169 362 197 386 q 121 319 140 338 m 356 303 q 238 298 292 301 q 163 288 183 294 q 121 253 125 272 q 133 222 117 235 q 182 207 150 210 q 250 219 214 204 q 306 254 279 232 q 356 303 333 276 z "},"/":{"ha":507,"x_min":15,"x_max":763,"o":"m 38 -47 q 28 -34 33 -44 q 21 -11 24 -24 q 17 12 18 1 q 17 26 15 22 q 108 194 54 106 q 223 372 161 282 q 353 551 285 461 q 489 727 421 642 q 622 890 557 813 q 742 1031 686 967 q 747 1024 744 1033 q 753 999 750 1014 q 758 972 756 985 q 763 956 760 958 q 721 906 763 954 q 613 779 679 858 q 465 597 547 700 q 303 382 383 493 q 151 160 222 271 q 38 -47 81 49 z "},".":{"ha":236,"x_min":56,"x_max":146,"o":"m 88 163 q 98 163 89 165 q 117 156 107 161 q 135 147 126 151 q 146 140 143 142 q 140 131 146 140 q 126 109 133 121 q 114 85 119 97 q 111 68 108 74 q 99 63 108 61 q 79 69 89 65 q 60 87 64 75 q 59 112 56 99 q 71 138 63 125 q 88 163 79 151 z "},"-":{"ha":522,"x_min":47,"x_max":390,"o":"m 47 438 q 124 442 86 440 q 200 443 163 443 q 276 439 239 442 q 351 433 314 436 q 359 426 353 433 q 373 409 365 418 q 385 390 381 400 q 390 372 390 379 q 88 379 235 389 q 78 386 85 379 q 65 402 72 393 q 53 422 58 411 q 47 438 47 432 z "},",":{"ha":313,"x_min":33,"x_max":172,"o":"m 33 75 q 82 139 64 101 q 103 214 100 176 q 114 216 104 218 q 136 210 124 214 q 159 201 149 206 q 172 197 169 197 q 154 146 165 171 q 129 99 144 124 q 90 54 114 74 q 80 56 89 53 q 60 62 71 58 q 42 69 50 65 q 33 75 33 72 z "},"+":{"ha":569,"x_min":79,"x_max":422,"o":"m 213 247 q 197 249 206 246 q 179 256 188 251 q 165 264 171 260 q 161 271 160 268 q 190 326 176 299 q 215 382 203 354 q 167 381 192 382 q 119 379 143 381 q 110 386 117 379 q 97 402 104 393 q 85 422 90 411 q 79 438 79 432 q 156 442 118 440 q 232 443 194 443 l 242 443 q 263 502 253 472 q 283 561 274 532 q 301 561 292 564 q 319 554 311 558 q 333 546 328 550 q 339 540 339 542 l 301 440 q 342 436 322 438 q 383 433 363 435 q 391 426 385 433 q 405 409 397 418 q 417 390 413 400 q 422 372 422 379 q 350 378 386 376 q 278 382 314 381 q 247 316 263 350 q 213 247 232 282 z "},"*":{"ha":560,"x_min":99,"x_max":406,"o":"m 294 969 q 309 974 299 971 q 331 982 319 978 q 353 990 343 986 q 368 993 364 993 q 388 981 371 993 q 406 957 404 968 q 374 951 393 957 q 333 939 354 946 q 293 925 313 932 q 263 913 274 918 l 325 825 q 305 824 314 818 q 282 833 296 829 l 244 886 l 192 797 q 176 805 181 803 q 158 818 172 807 l 194 881 q 151 853 164 863 q 136 842 143 847 q 115 857 124 850 q 103 870 108 864 q 103 879 99 876 q 140 904 111 886 q 206 940 168 922 l 164 1000 q 161 1009 160 1006 q 167 1014 163 1013 q 179 1015 172 1015 q 190 1014 186 1015 l 235 951 l 283 1029 q 305 1016 294 1024 q 318 1008 315 1008 l 294 969 z "},")":{"ha":403,"x_min":-119,"x_max":450,"o":"m 325 1082 q 418 982 389 1043 q 447 837 450 918 q 417 667 444 756 q 343 490 389 579 q 240 317 297 400 q 149 195 196 251 q 55 96 101 139 q -34 25 8 53 q -110 -11 -76 -3 q -117 -7 -115 -12 q -115 21 -119 6 q -112 40 -110 36 q -10 113 -65 64 q 103 229 44 163 q 238 419 174 315 q 344 629 301 522 q 397 833 386 735 q 369 1007 407 932 q 347 1042 360 1025 q 318 1074 335 1058 q 300 1090 304 1086 q 299 1094 296 1094 q 309 1090 301 1094 q 325 1082 317 1086 z "},"(":{"ha":249,"x_min":-3,"x_max":567,"o":"m 122 7 q 67 51 90 26 q 29 106 44 76 q 0 251 -3 171 q 31 421 3 332 q 104 599 58 510 q 208 772 150 689 q 299 892 251 836 q 393 992 347 949 q 481 1064 439 1036 q 557 1100 524 1092 q 564 1096 561 1100 q 562 1067 567 1083 q 560 1047 557 1051 q 458 975 513 1024 q 346 858 403 926 q 210 670 275 774 q 104 460 144 567 q 51 255 61 353 q 78 82 40 157 q 129 15 97 43 q 147 -2 143 3 q 149 -7 151 -7 q 138 -3 146 -7 q 122 7 131 1 z "},"'":{"ha":401,"x_min":185,"x_max":301,"o":"m 185 889 q 226 956 217 919 q 242 1029 236 992 q 249 1031 242 1032 q 267 1026 257 1029 q 287 1021 278 1024 q 299 1018 296 1018 q 300 1008 301 1021 q 293 974 299 994 q 278 930 288 953 q 256 892 269 907 q 224 873 242 876 q 185 889 207 869 z "},"y":{"ha":469,"x_min":-271,"x_max":496,"o":"m 432 564 q 413 527 426 554 q 383 465 400 500 q 349 390 367 429 q 314 315 331 350 q 285 252 297 279 q 268 215 272 225 q 333 241 300 225 q 395 274 367 257 q 444 306 424 290 q 472 329 465 321 q 490 306 483 325 q 489 281 496 288 q 367 203 433 231 q 238 149 301 176 q 201 79 224 118 q 149 -2 178 40 q 85 -86 119 -44 q 17 -165 51 -128 q -49 -230 -17 -201 q -112 -276 -82 -258 q -169 -301 -143 -296 q -214 -294 -194 -306 l -231 -279 q -251 -251 -242 -262 q -266 -228 -261 -240 q -271 -200 -271 -215 q -262 -160 -271 -185 q -193 -56 -246 -108 q -117 8 -160 -24 q -26 67 -74 39 q 103 138 40 107 q 206 186 165 169 q 235 250 217 211 q 272 325 253 289 l 271 326 q 249 290 263 308 q 219 253 235 271 q 186 223 203 236 q 156 204 169 210 q 119 198 139 197 q 79 206 99 199 q 42 227 60 214 q 13 258 24 240 q -7 326 -7 289 q 3 399 -7 363 q 31 471 14 436 q 66 533 49 506 q 96 576 83 560 q 108 592 108 592 q 122 588 111 589 q 144 583 133 586 q 160 575 154 581 q 158 560 165 569 q 117 499 139 535 q 79 425 96 464 q 55 347 63 386 q 54 276 47 308 q 83 231 61 244 q 129 235 104 218 q 170 274 147 247 q 217 333 193 300 q 264 404 240 367 q 308 476 288 442 q 342 540 328 511 q 365 586 357 569 q 377 594 368 594 q 397 588 386 593 q 417 574 407 582 q 432 564 426 567 m 174 121 q 95 82 138 104 q 8 33 53 60 q -78 -22 -36 7 q -151 -83 -119 -51 q -217 -179 -199 -131 q -223 -226 -226 -210 q -206 -246 -219 -242 q -173 -244 -193 -250 q -131 -224 -153 -237 q -72 -181 -103 -208 q -10 -119 -42 -153 q 92 0 43 -64 q 174 121 140 64 z "},"w":{"ha":678,"x_min":-31,"x_max":658,"o":"m 113 440 q 80 381 96 414 q 53 311 64 347 q 33 238 38 269 q 33 188 28 206 q 52 169 38 169 q 90 189 67 168 q 133 238 118 214 q 159 289 149 263 q 178 343 169 315 q 204 403 188 371 q 217 404 208 408 q 236 392 226 400 q 253 376 246 385 q 258 367 260 368 q 241 317 251 343 q 224 263 231 290 q 217 208 217 235 q 233 157 218 181 q 261 138 244 140 q 297 140 278 135 q 338 158 317 146 q 378 186 358 171 q 444 252 413 214 q 503 334 476 290 q 549 425 529 378 q 579 519 568 472 q 586 633 594 582 q 538 707 578 683 q 567 712 542 717 q 617 680 593 707 q 649 599 640 653 q 628 454 658 544 q 584 356 611 406 q 524 260 557 306 q 453 176 490 214 q 378 113 415 138 q 293 94 333 83 q 197 144 253 104 q 164 188 172 161 q 147 174 157 182 q 124 156 136 165 q 102 140 113 147 q 86 132 92 133 q 58 133 75 129 q 26 147 42 138 q -3 172 10 157 q -22 204 -17 186 q -23 277 -31 236 q 1 361 -15 318 q 28 419 14 392 q 58 470 43 447 q 85 509 72 493 q 107 529 99 525 q 139 526 124 528 q 160 522 150 524 q 168 513 171 519 q 147 483 165 500 q 113 440 128 465 z "},"s":{"ha":585,"x_min":-11,"x_max":604,"o":"m 400 506 q 503 607 482 569 q 503 656 524 644 q 430 655 482 668 q 313 605 378 642 q 180 509 247 568 q 61 371 113 450 q 35 303 29 321 q 65 285 40 285 q 122 297 89 285 q 179 317 154 308 q 369 358 311 365 q 395 347 383 357 q 414 320 407 336 q 422 287 421 304 q 418 256 424 269 q 521 306 474 283 q 596 332 568 329 q 601 310 599 324 q 597 294 604 296 q 553 279 582 292 q 490 249 524 267 q 426 213 457 232 q 379 179 396 193 q 271 51 328 100 q 174 -14 214 3 q 142 -10 158 -18 q 115 12 125 -3 q 103 45 104 26 q 118 82 103 64 q 186 135 139 104 q 219 156 203 146 q 251 175 236 167 q 294 197 275 189 q 321 207 314 204 q 366 238 354 219 q 394 290 378 256 q 391 313 401 307 q 360 317 381 318 q 313 308 339 315 q 262 294 286 301 q 219 280 238 286 q 197 272 201 274 q 133 254 172 263 q 63 249 94 246 q 15 267 32 251 q -6 307 -1 283 q -5 358 -11 331 q 17 411 1 386 l 22 421 q 63 475 39 446 q 117 533 88 504 q 179 590 146 563 q 247 640 213 617 q 305 674 272 657 q 372 701 338 692 q 440 709 407 711 q 500 685 474 707 q 512 669 506 681 q 524 645 518 658 q 532 618 529 632 q 533 596 535 604 q 517 558 529 576 q 467 500 497 528 q 418 458 438 472 q 408 460 411 453 q 403 486 404 469 q 400 506 403 503 m 318 160 q 278 139 300 151 q 235 112 257 126 q 194 83 214 97 q 158 57 174 69 q 140 37 146 46 q 134 23 133 28 q 144 20 135 18 q 169 33 153 22 q 201 57 182 42 q 242 90 221 72 q 283 127 263 108 q 318 160 303 146 z "},"a":{"ha":575,"x_min":-24,"x_max":613,"o":"m 547 608 l 472 511 q 369 333 411 419 q 313 186 328 246 q 315 106 299 126 q 386 129 332 86 q 423 164 400 140 q 472 217 446 188 q 527 281 499 247 q 581 347 556 314 q 588 347 583 350 q 598 336 593 343 q 607 322 603 329 q 613 308 611 314 q 586 273 604 297 q 546 220 568 249 q 498 163 524 192 q 450 117 472 135 q 342 64 386 64 q 278 99 299 64 q 260 196 257 135 q 297 326 264 257 q 253 288 278 308 q 204 247 229 267 q 156 211 179 228 q 115 185 132 194 q 47 178 78 163 q -4 228 15 194 q -14 300 -24 260 q 19 381 -4 340 q 57 436 29 401 q 122 506 85 471 q 203 570 160 540 q 289 610 247 600 q 367 607 331 621 q 425 543 403 593 l 492 619 l 547 608 m 156 297 q 237 367 194 329 q 315 437 279 404 q 374 494 350 469 q 403 522 399 518 q 348 565 386 565 q 265 541 310 565 q 178 478 221 517 q 111 408 136 440 q 57 324 79 367 q 33 256 35 281 q 60 238 32 232 q 156 297 88 243 z "},"b":{"ha":386,"x_min":-57,"x_max":694,"o":"m -40 97 q -54 138 -53 111 q -52 190 -57 158 q -32 264 -47 221 q 56 475 4 371 q 175 676 108 579 q 310 850 238 768 q 467 1001 383 932 q 603 1088 550 1069 q 675 1087 656 1106 q 677 1019 694 1068 q 603 904 660 969 q 472 776 547 840 q 325 654 397 711 q 195 552 253 597 q 117 482 138 507 q 132 493 124 489 q 149 501 140 497 q 179 507 163 507 q 213 503 196 507 q 244 491 229 499 q 269 474 260 483 q 289 444 283 460 q 293 360 304 408 q 276 313 288 340 q 246 253 264 285 q 292 274 265 261 q 342 299 318 288 q 382 320 365 311 q 399 329 399 329 q 403 322 400 328 q 408 308 406 315 q 410 293 410 300 q 407 283 411 286 q 379 269 399 278 q 335 249 360 260 q 285 228 311 239 q 239 211 260 218 q 217 204 229 210 q 200 181 208 193 q 183 157 192 168 q 119 92 151 117 q 64 56 88 68 q 6 54 31 38 q -40 97 -19 71 m 151 546 q 258 649 203 601 q 367 742 313 696 q 472 834 421 788 q 567 933 522 881 q 636 1027 614 992 q 652 1070 658 1063 q 611 1056 646 1078 q 511 981 576 1035 q 355 829 428 911 q 219 656 282 747 q 184 601 201 628 q 151 546 167 574 m 138 178 q 146 188 142 183 q 153 199 150 193 q 122 206 140 200 q 87 222 104 213 q 56 242 69 231 q 36 268 42 254 q 33 279 33 274 q 31 292 32 285 q 22 267 26 279 q 14 244 18 256 q -11 131 -11 171 q 8 82 -11 90 q 62 98 28 74 q 138 178 96 122 m 178 239 q 223 321 204 281 q 247 385 242 361 q 252 420 251 400 q 248 457 253 440 q 231 482 243 474 q 196 481 218 490 q 163 458 178 472 q 126 416 142 440 q 100 364 110 392 q 93 264 78 307 q 129 233 107 233 q 178 239 151 233 z "},"c":{"ha":460,"x_min":-31,"x_max":499,"o":"m 299 582 q 206 518 250 554 q 126 438 163 482 q 65 345 90 394 q 32 243 40 296 q 39 158 21 183 q 89 129 57 132 q 162 141 121 126 q 239 176 203 156 q 311 222 275 197 q 377 269 347 246 q 430 310 407 292 q 464 340 453 329 q 472 338 467 342 q 483 329 478 335 q 492 318 488 324 q 499 311 497 313 q 458 272 485 294 q 399 225 432 250 q 327 175 365 200 q 251 130 289 150 q 179 97 214 110 q 118 82 144 83 q 82 85 100 79 q 47 102 64 92 q 15 127 29 113 q -10 158 0 142 q -26 206 -22 178 q -17 293 -31 242 q 39 411 -3 344 q 92 482 61 446 q 158 550 122 518 q 231 606 193 582 q 307 639 269 629 q 400 638 357 650 q 466 595 443 625 q 486 522 489 565 q 443 431 483 479 q 431 433 440 431 q 414 438 422 435 q 400 446 406 442 q 397 453 394 450 q 438 536 429 499 q 434 594 447 574 q 387 613 421 614 q 299 582 353 611 z "},"d":{"ha":575,"x_min":-33,"x_max":878,"o":"m 619 297 q 567 237 594 268 q 512 178 539 206 q 461 129 485 150 q 421 100 438 108 q 353 94 383 83 q 301 130 322 104 q 270 190 281 156 q 263 254 260 224 q 263 269 263 261 q 265 285 264 276 q 263 284 264 285 q 261 283 263 283 l 260 283 q 223 241 243 263 q 182 200 203 219 q 142 163 161 181 q 108 135 122 146 q 44 118 74 111 q -10 157 15 125 q -31 226 -33 186 q -11 308 -29 265 q 24 375 -1 333 q 82 460 49 417 q 155 543 115 504 q 232 601 194 582 q 303 610 269 619 q 360 550 338 601 q 524 845 442 731 q 676 1017 607 960 q 795 1081 746 1075 q 861 1053 844 1088 q 855 948 878 1018 q 757 783 832 878 q 630 629 688 696 q 528 513 572 563 q 436 419 483 465 q 336 333 389 374 q 308 226 311 268 q 315 164 304 185 q 347 140 325 143 q 393 149 368 136 q 439 180 415 160 q 487 226 463 200 q 535 280 511 251 q 579 338 558 308 l 619 297 m 449 603 q 403 515 424 553 q 367 425 383 476 q 423 479 392 449 q 494 550 454 510 q 581 644 533 590 q 688 769 629 699 q 758 875 728 824 q 815 989 788 926 q 823 1047 839 1042 q 768 1024 807 1053 q 676 938 722 989 q 588 828 629 886 q 510 712 546 771 q 449 603 475 653 m 299 389 q 315 513 319 475 q 291 556 311 551 q 240 538 271 560 q 178 482 210 515 q 117 411 146 449 q 72 347 88 374 q 27 254 42 294 q 17 193 13 214 q 47 176 22 172 q 119 218 71 181 q 176 267 146 239 q 233 320 207 294 q 277 365 258 346 q 299 389 296 385 z "},"D":{"ha":797,"x_min":-11,"x_max":810,"o":"m -7 315 q -8 336 -7 329 q -3 455 -11 393 q 21 579 4 517 q 63 703 38 642 q 119 821 88 764 q 192 926 151 876 q 280 1015 232 976 q 383 1079 328 1054 q 501 1108 439 1104 q 591 1094 547 1111 q 672 1047 635 1078 q 737 974 710 1015 q 776 885 764 932 q 801 668 810 771 q 756 469 793 565 q 658 294 718 376 q 525 138 599 211 q 449 68 492 106 q 358 -3 407 31 q 260 -61 311 -37 q 157 -89 208 -85 q 108 -83 133 -92 q 63 -56 82 -74 q 31 -13 43 -37 q 24 39 19 11 q 32 72 26 54 q 49 108 38 90 q 65 133 56 121 q 85 157 75 146 q 52 179 68 161 q 24 222 36 197 q 3 271 11 246 q -7 315 -6 296 m 242 275 q 356 313 294 300 q 388 301 368 315 q 428 242 408 288 q 378 262 410 263 q 309 246 346 261 q 233 203 272 231 q 159 144 193 176 q 101 81 125 113 q 67 23 76 49 q 69 -19 58 -3 q 119 -33 81 -35 q 221 -5 171 -29 q 317 51 271 19 q 407 121 365 85 q 481 190 449 157 q 613 346 553 264 q 710 519 672 428 q 741 626 728 567 q 757 745 754 685 q 750 863 760 806 q 715 963 740 919 q 647 1031 690 1007 q 538 1051 603 1056 q 424 1023 478 1047 q 323 960 369 999 q 236 873 276 922 q 165 769 196 824 q 109 651 133 713 q 68 529 85 590 q 44 408 51 468 q 39 293 36 347 q 67 221 42 226 q 133 251 93 215 q 222 356 172 288 q 324 509 272 425 q 426 681 376 593 q 517 844 476 769 q 585 971 558 919 q 617 1033 611 1022 q 632 1017 625 1028 q 643 992 639 1006 q 648 967 647 979 q 644 946 649 954 q 606 872 631 918 q 551 769 582 826 q 483 649 519 713 q 409 522 447 585 q 332 399 371 458 q 256 292 293 340 q 249 283 253 286 q 242 275 244 279 z "},"C":{"ha":776,"x_min":-19,"x_max":849,"o":"m 714 671 q 744 739 729 697 q 771 828 760 781 q 785 922 782 875 q 776 1006 788 968 q 737 1068 765 1044 q 658 1093 708 1092 q 523 1058 596 1094 q 374 939 450 1022 q 257 795 310 872 q 164 636 204 718 q 85 441 115 538 q 44 260 54 344 q 47 110 35 175 q 96 11 60 46 q 163 -10 122 -14 q 249 17 203 -6 q 342 75 294 40 q 433 147 390 110 q 508 215 475 183 q 558 263 542 246 q 589 292 572 275 q 623 328 606 310 q 657 363 640 346 q 688 392 674 379 q 696 389 690 393 q 708 378 701 385 q 722 363 715 371 q 733 350 729 354 q 670 293 701 322 q 608 235 639 264 q 534 163 575 203 q 447 85 493 122 q 349 16 400 47 q 247 -28 299 -15 q 144 -29 194 -40 q 46 26 93 -18 q -6 129 7 63 q -8 282 -19 196 q 32 465 1 368 q 111 663 63 563 q 205 822 151 744 q 322 968 258 900 q 476 1088 401 1051 q 615 1125 551 1125 q 653 1120 632 1125 q 694 1108 674 1115 q 733 1090 714 1100 q 765 1069 751 1079 q 829 978 810 1035 q 836 831 849 915 q 767 644 824 746 q 684 532 732 583 q 584 447 636 481 q 481 398 532 413 q 389 397 431 383 q 321 453 347 410 q 292 578 294 497 q 306 667 290 626 q 335 731 321 707 q 353 743 340 742 q 379 740 365 744 q 406 727 393 736 q 422 708 418 718 q 424 696 428 699 q 414 694 421 693 q 398 697 407 694 q 383 699 389 699 q 344 581 350 638 q 356 486 339 525 q 408 431 372 447 q 491 431 443 414 q 596 506 539 449 q 714 671 653 563 z "},"B":{"ha":981,"x_min":-10,"x_max":901,"o":"m 1 310 q 28 526 -10 414 q 136 740 67 638 q 297 924 206 842 q 485 1054 389 1007 q 672 1103 581 1101 q 832 1046 764 1106 q 876 988 864 1018 q 889 927 889 958 q 878 865 889 896 q 854 807 868 835 q 786 699 828 753 q 706 603 744 646 q 638 531 667 560 q 610 500 610 503 q 691 520 647 508 q 771 529 735 532 q 838 512 808 526 q 883 472 867 497 q 901 410 900 447 q 883 325 901 374 q 797 201 857 264 q 662 83 738 139 q 504 -18 586 28 q 351 -92 422 -64 q 222 -131 281 -119 q 124 -126 163 -142 q 53 -76 74 -107 q 53 -21 33 -44 q 90 16 68 -1 q 131 46 113 33 q 258 119 181 82 q 450 185 336 157 q 467 178 454 186 q 486 158 479 169 q 391 130 439 149 q 299 90 343 111 q 218 44 256 68 q 156 0 181 21 q 92 -69 94 -47 q 119 -95 89 -92 q 201 -87 150 -99 q 300 -56 253 -75 q 465 25 383 -19 q 619 123 546 69 q 751 238 692 176 q 849 371 810 300 q 860 458 874 425 q 801 492 847 492 q 705 476 758 492 q 604 444 651 460 q 558 436 575 435 q 532 445 542 438 q 517 463 522 453 q 508 481 513 472 q 647 614 588 554 q 746 725 706 674 q 810 822 785 775 q 840 901 835 868 q 838 997 851 961 q 797 1051 825 1033 q 728 1070 768 1068 q 648 1065 689 1072 q 569 1046 607 1058 q 506 1021 531 1033 q 265 835 358 936 q 122 633 172 733 q 57 442 71 533 q 54 287 43 351 q 95 193 65 222 q 161 186 125 164 q 212 232 183 200 q 269 301 240 264 q 323 375 299 339 q 361 433 347 411 q 449 600 415 519 q 503 743 483 681 q 531 844 524 806 q 538 882 538 882 q 575 865 563 876 q 585 840 588 853 q 474 486 557 660 q 257 174 392 313 q 180 138 222 139 q 100 160 138 138 q 35 222 63 182 q 1 310 7 261 z "},"A":{"ha":1124,"x_min":-26,"x_max":1169,"o":"m 1154 425 q 1097 376 1131 400 q 1028 336 1069 357 q 933 300 988 315 q 927 108 925 178 q 954 14 929 38 q 941 9 950 8 q 922 16 932 10 q 902 35 911 22 q 889 69 893 49 q 881 114 883 83 q 879 177 879 144 q 881 238 879 210 q 883 275 882 265 q 844 265 868 271 q 790 253 819 260 q 727 244 760 247 q 664 240 694 240 q 594 159 636 207 q 500 62 551 111 q 390 -31 449 13 q 272 -99 332 -75 q 153 -120 213 -122 q 42 -75 94 -118 q 8 -44 21 -58 q -13 -15 -6 -31 q -24 19 -21 0 q -25 63 -26 38 q 8 208 -22 139 q 90 321 39 276 q 212 379 142 365 q 364 363 282 393 q 491 314 431 338 q 618 283 551 290 q 744 444 678 354 q 874 629 810 533 q 999 823 939 725 q 1110 1011 1060 921 q 1133 1012 1121 1015 q 1153 1001 1144 1008 q 1165 984 1161 994 q 1165 964 1169 974 q 1142 913 1158 950 q 1103 822 1125 875 q 1056 706 1081 769 q 1008 578 1031 643 q 969 453 986 514 q 946 344 951 393 q 1013 374 983 358 q 1065 406 1043 390 q 1102 433 1088 421 q 1124 451 1117 446 q 1139 447 1126 453 q 1154 425 1151 440 m 890 325 q 951 551 908 433 q 1042 788 993 668 q 956 649 996 713 q 875 526 915 586 q 792 408 835 467 q 697 281 749 349 q 748 286 719 281 q 805 299 776 292 q 856 313 833 306 q 890 325 879 321 m 590 253 q 490 292 540 269 q 389 331 439 314 q 290 352 339 347 q 197 340 242 357 q 112 276 153 322 q 38 146 71 231 q 21 12 13 65 q 63 -65 29 -42 q 152 -78 96 -87 q 282 -24 208 -68 q 385 49 333 8 q 478 131 436 90 q 551 204 521 171 q 590 253 581 238 z "},"E":{"ha":831,"x_min":-56,"x_max":853,"o":"m 631 756 q 652 776 631 756 q 701 826 674 796 q 756 894 729 857 q 797 968 783 932 q 799 999 803 988 q 783 1017 794 1011 q 758 1026 772 1024 q 732 1028 744 1028 q 645 1014 694 1029 q 542 972 596 999 q 435 909 489 944 q 337 835 382 874 q 259 756 292 796 q 214 683 226 717 q 189 593 186 624 q 215 553 192 563 q 274 551 238 544 q 351 571 311 557 q 428 600 390 585 q 489 625 465 615 q 503 623 496 626 q 515 613 511 619 q 519 598 519 606 q 511 585 519 590 q 432 542 472 558 q 328 511 392 526 q 295 493 322 510 q 232 449 268 476 q 154 383 196 421 q 78 301 113 344 q 19 208 43 257 q -4 111 -4 160 q 12 26 -7 60 q 79 -19 31 -7 q 233 -14 151 -39 q 392 62 314 11 q 540 181 471 113 q 656 319 608 250 q 722 447 703 388 q 722 540 742 507 q 737 540 729 544 q 751 524 744 535 q 763 499 758 514 q 765 471 767 485 q 708 315 754 394 q 596 166 661 236 q 456 42 531 96 q 314 -39 381 -12 q 154 -70 235 -72 q 17 -18 74 -68 q -44 84 -32 32 q -43 187 -56 136 q 2 286 -31 238 q 74 377 35 335 q 157 453 114 419 q 233 511 200 488 q 168 564 188 531 q 153 597 157 579 q 153 635 150 615 q 156 658 153 646 q 163 683 158 671 q 251 827 189 756 q 400 957 314 899 q 523 1026 457 996 q 649 1068 589 1057 q 759 1066 710 1079 q 832 1007 808 1053 q 838 924 853 965 q 792 843 822 882 q 724 772 761 804 q 664 718 688 740 l 631 756 z "},"e":{"ha":410,"x_min":-33,"x_max":444,"o":"m -29 251 q 3 341 -24 293 q 68 434 31 389 q 147 517 106 479 q 224 575 189 554 q 296 593 258 596 q 357 570 333 590 q 383 515 381 550 q 351 433 386 479 q 246 331 311 381 q 128 255 189 286 q 24 221 67 224 l 24 214 q 44 153 17 164 q 115 158 71 143 q 201 195 154 171 q 292 247 249 219 q 369 298 335 274 q 414 336 403 322 q 422 328 417 333 q 433 315 428 322 q 442 302 439 308 q 442 293 444 296 q 378 242 421 274 q 285 182 335 211 q 188 130 236 153 q 107 104 139 107 q 54 114 81 101 q 8 147 28 126 q -23 196 -12 168 q -29 251 -33 224 m 40 269 q 119 295 75 272 q 206 351 163 318 q 283 421 249 383 q 335 492 318 458 q 342 557 363 547 q 272 538 321 567 q 206 488 240 519 q 140 418 172 456 q 82 341 108 381 q 40 269 56 301 z "},"f":{"ha":382,"x_min":-125,"x_max":424,"o":"m 111 275 q 185 118 182 204 q 135 -61 188 32 q 47 -176 90 -140 q -31 -210 4 -211 q -90 -174 -67 -208 q -119 -78 -114 -139 q -108 67 -125 -17 q -44 251 -90 151 q 16 367 -18 307 q 90 483 50 428 q 175 581 131 538 q 265 647 219 624 q 357 667 319 672 q 409 635 394 663 q 410 561 424 607 q 346 460 396 515 q 247 371 299 408 q 164 317 196 333 q 231 322 190 319 q 310 328 272 325 q 377 333 349 331 q 406 335 406 335 q 410 326 408 333 q 410 309 411 318 q 407 293 410 300 q 400 286 404 286 q 332 283 369 283 q 256 281 294 282 q 181 280 218 281 q 111 275 143 279 m 88 -26 q 112 24 101 -3 q 128 78 122 50 q 134 133 133 106 q 129 183 135 160 q 85 251 119 228 q 19 267 51 275 q -61 88 -35 168 q -93 -49 -87 7 q -86 -135 -99 -106 q -48 -165 -74 -165 q 13 -131 -22 -164 q 88 -26 49 -97 m 299 600 q 236 556 269 586 q 171 490 203 526 q 110 415 139 454 q 63 346 82 376 q 127 363 99 354 q 183 389 156 372 q 242 433 211 406 q 313 504 272 460 q 364 565 342 535 q 390 613 386 596 q 374 631 394 631 q 299 600 354 631 z "},"F":{"ha":864,"x_min":1,"x_max":1063,"o":"m 649 974 q 635 935 649 972 q 598 839 621 897 q 548 710 575 781 q 495 574 521 640 q 447 453 469 507 q 414 372 425 399 q 500 365 449 360 q 605 392 551 371 q 704 447 658 413 q 775 528 750 482 q 783 522 779 529 q 792 505 788 515 q 800 483 796 494 q 807 467 804 472 q 762 410 792 435 q 694 367 732 385 q 613 339 656 350 q 528 323 569 328 q 452 321 488 318 q 394 332 417 324 q 369 277 385 313 q 335 199 354 242 q 294 113 315 157 q 251 33 272 69 q 209 -30 229 -4 q 174 -60 189 -56 q 123 -60 147 -68 q 78 -32 99 -53 q 42 19 57 -11 q 17 86 26 50 q 5 228 1 150 q 28 383 8 306 q 85 531 49 461 q 169 651 121 601 q 184 658 172 657 q 209 654 196 658 q 232 640 222 650 q 240 613 242 629 q 242 556 239 588 q 258 492 246 524 q 294 435 271 461 q 353 393 317 408 q 476 685 418 536 q 590 982 533 835 q 529 975 561 979 q 463 963 497 971 q 365 942 417 954 q 251 910 313 929 q 240 917 247 908 q 225 936 233 925 q 220 944 222 940 q 215 951 218 949 q 210 958 213 956 l 207 969 q 319 1003 265 989 q 421 1029 372 1018 q 526 1048 476 1040 q 615 1058 575 1056 q 703 1063 656 1061 q 797 1060 750 1065 q 892 1040 846 1056 q 975 996 938 1025 q 1008 963 996 979 q 1040 913 1026 943 q 1058 849 1053 882 q 1058 786 1063 817 q 1035 736 1053 756 q 1025 752 1028 740 q 1021 777 1022 764 q 1020 801 1019 790 q 1022 811 1021 811 q 1031 829 1024 818 q 1033 874 1042 853 q 1005 912 1025 894 q 956 943 985 929 q 899 967 928 957 q 847 982 871 976 q 811 989 822 988 q 723 992 767 994 q 640 988 679 990 q 649 974 649 982 m 338 354 q 283 393 310 368 q 238 449 257 418 q 206 515 218 481 q 194 583 194 550 q 137 494 163 550 q 92 372 111 438 q 65 240 74 307 q 61 121 57 174 q 77 16 65 49 q 106 -19 89 -17 q 144 1 122 -22 q 192 64 167 24 q 268 206 232 131 q 338 354 304 281 z "},"G":{"ha":703,"x_min":-12,"x_max":818,"o":"m 264 543 q 324 585 281 565 q 422 619 367 604 q 540 640 478 633 q 656 642 601 646 q 751 623 711 639 q 806 575 792 607 q 810 560 807 572 q 815 535 813 549 q 817 513 817 522 q 815 503 818 503 q 772 554 813 536 q 668 578 731 572 l 669 578 q 648 556 665 579 q 608 491 631 532 q 558 395 585 450 q 510 279 532 340 q 473 155 488 218 q 458 33 458 92 q 474 -74 457 -25 q 533 -157 492 -124 q 538 -168 549 -169 q 510 -160 526 -167 q 448 -105 469 -142 q 418 -20 426 -68 q 413 81 410 28 q 424 183 415 133 q 446 275 433 233 q 469 342 458 317 q 427 296 454 328 q 363 226 400 264 q 284 153 326 189 q 199 96 242 117 q 109 79 149 72 q 42 115 69 86 q 1 190 15 143 q -8 292 -12 236 q 25 433 -6 351 q 103 600 56 514 q 210 770 150 686 q 333 919 269 854 q 458 1023 396 985 q 571 1057 519 1061 q 631 1040 604 1054 q 676 1003 658 1026 q 700 946 693 979 q 700 872 707 913 q 669 796 693 838 q 617 718 644 754 q 603 724 611 719 q 588 734 594 728 q 577 748 581 740 q 578 763 574 756 q 619 826 601 790 q 650 892 638 861 q 663 941 660 918 q 658 981 665 964 q 635 1004 651 997 q 590 1007 618 1011 q 477 954 536 996 q 360 852 418 913 q 248 717 301 792 q 151 567 194 643 q 79 417 108 490 q 42 283 50 343 q 38 197 35 233 q 53 139 40 160 q 92 115 67 118 q 156 132 117 113 q 340 281 228 168 q 586 579 451 393 q 483 567 535 576 q 387 544 431 558 q 313 509 343 529 q 276 465 283 489 q 263 483 267 471 q 259 507 260 494 q 260 530 258 519 q 264 543 261 540 z "},"g":{"ha":536,"x_min":-249,"x_max":567,"o":"m 474 524 q 435 465 461 506 q 378 372 410 425 q 333 296 356 336 q 290 215 310 256 q 363 235 322 219 q 440 269 403 250 q 506 308 478 289 q 543 340 535 328 q 560 317 554 336 q 560 292 567 299 q 494 247 532 267 q 414 209 456 226 q 332 177 372 192 q 260 149 292 163 q 223 79 246 118 q 171 -2 200 40 q 108 -86 142 -44 q 39 -165 74 -128 q -27 -230 6 -201 q -90 -276 -60 -258 q -147 -301 -121 -296 q -192 -294 -172 -306 l -208 -279 q -229 -251 -219 -262 q -244 -228 -239 -240 q -249 -200 -249 -215 q -240 -160 -249 -185 q -171 -56 -224 -108 q -94 8 -137 -24 q -4 67 -51 39 q 125 138 63 107 q 228 186 188 169 q 261 250 240 214 q 297 315 282 286 l 314 346 q 268 299 293 325 q 219 250 243 274 q 173 208 194 226 q 138 181 151 189 q 97 166 119 169 q 53 165 75 163 q 13 178 31 168 q -15 204 -6 188 q -24 276 -33 236 q 10 357 -15 317 q 56 418 24 381 q 129 492 89 456 q 214 559 169 529 q 299 599 258 589 q 369 592 339 608 q 414 519 400 575 l 415 508 l 422 518 q 444 555 436 539 q 451 572 451 571 q 471 549 461 565 q 474 524 481 533 m 196 121 q 114 80 158 103 q 25 29 69 57 q -64 -29 -21 1 q -140 -92 -107 -60 q -207 -192 -189 -140 q -214 -241 -218 -224 q -197 -262 -210 -258 q -162 -260 -183 -267 q -118 -239 -142 -254 q -58 -194 -90 -222 q 7 -131 -25 -165 q 111 -5 61 -72 q 196 121 161 63 m 144 274 q 226 343 183 306 q 303 413 268 381 q 363 470 339 446 q 392 499 388 494 q 363 548 382 535 q 319 558 344 561 q 264 536 293 554 q 205 493 235 518 q 148 440 175 468 q 100 385 121 411 q 46 300 68 343 q 22 233 24 257 q 49 214 21 208 q 144 274 76 219 z "},"h":{"ha":660,"x_min":-81,"x_max":735,"o":"m 85 246 q 149 296 113 268 q 224 351 185 324 q 304 401 264 378 q 378 439 344 425 q 438 454 413 453 q 474 440 463 456 q 485 422 481 432 q 488 397 489 411 q 481 358 488 385 q 469 303 474 332 q 465 249 464 274 q 482 218 467 225 q 515 222 493 213 q 563 249 538 231 q 615 289 589 267 q 663 331 642 311 q 678 317 671 322 q 688 307 685 311 q 690 297 692 303 q 678 282 688 292 q 643 248 663 267 q 601 214 624 229 q 552 188 578 199 q 500 178 526 178 q 444 201 464 179 q 418 253 425 222 q 414 316 411 283 q 425 372 417 349 q 435 409 433 394 q 417 417 436 424 q 379 399 400 411 q 324 365 358 388 q 260 320 293 344 q 197 272 228 296 q 137 226 165 249 q 86 186 108 204 q 69 172 79 181 q 47 153 58 163 q 26 136 36 144 q 13 125 17 128 q -15 119 4 118 q -51 133 -35 121 q -74 166 -67 144 q -65 222 -81 188 q -37 274 -60 235 q 22 370 -14 314 q 103 496 57 426 q 201 639 149 565 q 311 785 254 713 q 426 922 368 858 q 538 1036 483 986 q 642 1114 593 1086 q 667 1126 651 1119 q 696 1135 682 1133 q 721 1131 710 1136 q 735 1107 732 1125 q 733 1096 735 1104 q 727 1078 731 1088 q 720 1062 724 1069 q 717 1053 717 1054 q 697 1069 707 1064 q 676 1076 688 1075 q 654 1069 665 1078 q 619 1041 639 1057 q 578 1004 600 1025 q 279 655 411 846 q 31 263 147 464 q -9 184 -6 201 q 1 175 -12 167 q 39 206 14 183 q 85 246 64 228 z "},"H":{"ha":903,"x_min":-51,"x_max":1304,"o":"m 706 -69 q 661 -96 686 -83 q 611 -117 636 -108 q 565 -125 586 -125 q 529 -114 543 -125 q 499 -68 508 -97 q 489 -1 489 -39 q 497 82 489 38 q 521 171 506 126 q 447 159 482 161 q 381 165 413 157 q 319 195 349 174 q 261 256 290 217 q 215 182 240 221 q 162 106 190 143 q 102 38 133 69 q 40 -12 71 7 q 2 -24 19 -28 q -27 -5 -15 -19 q -45 29 -39 10 q -50 65 -51 49 q -38 138 -49 99 q -12 215 -28 176 q 21 290 3 254 q 56 354 39 326 q 103 426 76 389 q 165 501 131 463 q 187 517 175 513 q 208 518 199 521 q 224 508 218 515 q 231 489 231 500 q 228 444 228 468 q 232 398 229 419 q 239 358 235 376 q 247 332 243 340 q 301 431 276 383 q 351 532 325 479 q 383 606 363 557 q 422 712 403 656 q 452 821 440 768 q 458 904 464 874 q 425 935 453 935 q 336 885 397 935 q 265 813 296 851 q 211 740 233 774 q 176 683 189 706 q 164 660 164 660 l 163 661 l 161 660 l 150 688 q 143 708 146 699 q 143 724 140 718 q 217 837 175 782 q 310 932 260 892 q 373 972 338 956 q 440 990 408 989 q 492 969 471 990 q 514 894 514 947 q 492 742 515 824 q 433 580 468 661 q 356 422 397 499 q 278 285 314 346 q 346 231 313 249 q 412 210 379 214 q 478 213 444 206 q 544 233 511 219 q 546 238 544 236 q 619 408 578 321 q 711 582 661 496 q 819 749 761 668 q 939 899 876 829 q 1013 971 972 936 q 1094 1031 1053 1006 q 1174 1069 1136 1057 q 1242 1075 1213 1082 q 1288 1038 1271 1068 q 1301 946 1304 1007 q 1268 856 1297 900 q 1260 862 1265 856 q 1249 877 1254 868 q 1239 895 1243 886 q 1236 911 1235 904 q 1263 999 1263 971 q 1245 1034 1263 1028 q 1197 1028 1228 1040 q 1132 996 1167 1017 q 988 872 1057 949 q 860 707 919 796 q 752 526 801 618 q 668 358 703 435 q 649 319 661 346 q 622 256 638 292 q 745 316 689 283 q 843 399 801 349 q 848 381 846 394 q 850 355 850 368 q 849 331 850 342 q 846 318 849 319 q 807 286 832 304 q 749 249 782 268 q 676 210 717 229 q 592 179 636 192 q 563 96 576 138 q 544 18 550 54 q 539 -44 538 -18 q 554 -82 540 -71 q 597 -84 568 -93 q 671 -40 625 -75 l 706 -69 m 231 303 q 201 376 211 339 q 188 444 192 414 q 142 397 168 432 q 90 317 117 363 q 39 222 64 272 q -3 129 14 172 q -25 55 -19 86 q -19 17 -31 24 q 22 32 -8 10 q 107 117 51 54 q 174 210 140 158 q 231 303 207 263 z "},"I":{"ha":600,"x_min":-117,"x_max":978,"o":"m 82 851 q 183 939 124 910 q 311 977 243 968 q 451 979 379 986 q 588 958 522 972 q 716 1063 654 1028 q 828 1106 778 1097 q 913 1103 878 1115 q 963 1069 949 1092 q 968 1019 978 1047 q 918 965 958 990 q 803 923 878 940 q 615 907 729 906 q 509 765 563 849 q 403 575 456 681 q 303 346 351 469 q 215 85 256 222 q 354 104 286 99 q 474 103 422 110 q 556 79 526 97 q 578 29 585 61 q 513 51 564 44 q 392 53 461 57 q 247 37 324 50 q 105 3 171 24 q -6 -46 39 -17 q -56 -110 -51 -75 q -75 -102 -64 -108 q -95 -87 -86 -96 q -110 -70 -104 -79 q -115 -57 -117 -61 q -74 -19 -101 -37 q -11 17 -47 0 q 68 47 25 33 q 157 71 111 60 l 154 72 q 232 326 186 201 q 331 561 278 451 q 442 762 385 671 q 551 914 499 853 q 408 936 469 935 q 299 926 346 938 q 247 909 278 922 q 190 877 217 896 q 147 836 163 858 q 140 792 131 814 q 145 771 146 775 q 138 771 144 767 q 119 786 131 775 q 93 813 107 797 q 76 828 82 819 q 82 851 69 836 m 669 957 q 797 968 743 949 q 890 1014 850 988 q 930 1051 926 1038 q 917 1067 933 1064 q 867 1063 900 1069 q 798 1043 835 1057 q 726 1007 761 1029 q 669 957 692 985 z "},"i":{"ha":296,"x_min":-26,"x_max":331,"o":"m 326 304 q 308 276 331 299 q 251 224 285 253 q 177 169 217 196 q 107 129 138 142 q 56 117 81 117 q 13 128 32 117 q -16 161 -6 139 q -25 217 -26 183 q -13 289 -24 250 q 13 366 -3 328 q 47 439 28 404 q 85 500 67 474 q 106 524 96 515 q 122 526 115 532 l 164 490 q 118 444 142 478 q 74 369 94 411 q 38 284 53 328 q 17 207 22 240 q 24 160 11 171 q 83 164 36 149 q 133 193 101 171 q 198 243 165 215 q 259 298 231 271 q 300 340 288 325 l 326 304 m 172 639 q 203 688 181 667 q 251 724 226 710 q 264 721 257 726 q 277 707 271 715 q 288 690 283 699 q 294 679 293 682 q 244 642 268 667 q 215 588 221 617 q 204 595 211 588 q 190 612 197 603 q 177 628 182 621 q 172 639 172 636 z "},"j":{"ha":569,"x_min":-265,"x_max":594,"o":"m 363 233 q 450 274 411 256 q 517 307 489 293 q 571 336 549 322 q 582 327 576 333 q 591 313 588 321 q 594 299 594 306 q 590 289 594 292 q 464 226 525 251 q 328 167 403 200 q 285 96 313 135 q 224 15 258 57 q 151 -69 190 -26 q 69 -149 111 -111 q -7 -212 31 -185 q -79 -260 -44 -240 q -146 -284 -115 -279 q -199 -278 -176 -289 q -218 -261 -210 -271 q -242 -233 -232 -244 q -259 -210 -253 -222 q -265 -182 -265 -197 q -254 -142 -264 -167 q -175 -39 -237 -90 q -84 25 -135 -7 q 19 85 -33 57 q 171 156 97 125 q 290 203 244 186 l 299 206 q 340 283 315 229 q 372 428 364 338 q 365 490 375 464 q 335 528 354 515 q 289 540 315 540 q 233 522 263 539 q 174 476 204 506 q 116 414 143 447 q 67 344 89 381 q 35 276 46 308 q 6 292 22 281 q -4 317 -10 303 q 33 401 10 361 q 85 474 57 442 q 146 528 114 506 q 210 560 178 551 q 251 567 228 565 q 297 567 274 569 q 341 556 319 564 q 379 536 363 549 q 410 492 400 519 q 418 426 421 464 q 395 310 411 358 q 363 233 379 263 m 253 138 q 158 98 208 121 q 54 47 107 75 q -49 -12 1 19 q -139 -75 -100 -43 q -215 -174 -197 -124 q -224 -224 -228 -207 q -204 -245 -219 -240 q -165 -244 -189 -250 q -114 -222 -142 -237 q -42 -176 -79 -204 q 33 -114 -6 -149 q 154 12 96 -56 q 253 138 213 79 m 457 789 q 469 786 463 792 q 483 772 476 781 q 495 756 490 764 q 501 744 500 747 q 476 723 489 738 q 452 690 463 708 q 434 651 442 671 q 425 618 426 632 q 388 659 394 635 q 391 709 382 683 q 419 756 400 735 q 457 789 438 778 z "},"J":{"ha":725,"x_min":0,"x_max":953,"o":"m 0 521 q 13 624 0 581 q 47 700 26 668 q 91 755 67 732 q 140 794 115 778 q 268 842 196 833 q 432 857 340 851 q 483 859 456 858 q 547 865 510 860 q 638 880 585 869 q 765 911 690 890 q 807 1009 782 974 q 858 1058 832 1044 q 906 1069 883 1072 q 940 1050 928 1065 q 951 1010 953 1035 q 928 957 950 985 q 876 907 908 933 q 792 856 843 881 q 726 684 757 772 q 663 508 694 596 q 599 335 632 421 q 526 172 565 250 q 460 67 496 110 q 389 -17 424 24 q 268 -96 326 -74 q 161 -113 210 -118 q 76 -81 113 -108 q 20 -12 39 -54 q 2 83 1 31 q 28 191 3 136 q 108 301 54 246 q 249 400 163 356 q 311 428 272 414 q 392 446 350 442 q 469 438 433 450 q 524 386 506 425 q 406 393 467 400 q 297 357 344 386 q 137 223 194 292 q 60 96 79 154 q 57 -4 42 38 q 115 -56 72 -46 q 226 -39 158 -67 q 378 68 293 -11 q 462 174 421 108 q 546 334 503 240 q 635 551 589 428 q 733 831 681 674 q 603 816 679 819 q 446 806 526 813 q 288 783 365 800 q 155 729 211 767 q 72 627 99 692 q 64 460 44 563 q 59 438 68 436 q 36 455 50 440 q 11 490 22 469 q 0 521 0 510 m 828 936 q 832 941 829 940 q 836 943 835 942 q 894 989 878 964 q 908 1024 911 1014 q 883 1016 904 1033 q 828 936 861 999 z "},"K":{"ha":900,"x_min":-51,"x_max":1194,"o":"m 1067 725 q 1088 756 1075 735 q 1113 803 1100 778 q 1134 856 1125 829 q 1143 901 1143 882 q 1132 926 1143 919 q 1093 922 1121 933 q 1019 879 1061 908 q 928 811 976 850 q 829 726 881 772 q 728 634 778 681 q 631 542 678 588 q 544 460 583 497 q 542 458 543 458 q 540 456 542 458 q 530 446 529 444 q 540 456 531 447 q 565 475 550 464 q 596 493 579 486 q 635 484 618 501 q 663 443 651 467 q 665 434 665 439 q 661 413 664 429 q 649 356 657 388 q 634 290 642 325 q 619 217 626 254 q 608 142 613 179 q 601 74 603 106 q 610 4 599 24 q 642 -15 622 -15 q 685 1 661 -15 q 735 38 710 17 q 781 81 760 58 q 815 115 803 103 q 823 110 817 117 q 835 94 829 103 q 847 78 842 86 q 850 69 851 69 q 808 27 831 50 q 761 -17 786 4 q 710 -51 736 -37 q 661 -67 685 -65 q 626 -60 644 -68 q 591 -36 607 -51 q 563 0 575 -21 q 550 46 551 21 q 549 127 546 79 q 561 225 553 175 q 581 322 569 275 q 601 403 592 369 q 609 441 608 424 q 589 447 610 458 q 569 435 582 443 q 543 416 557 426 q 515 396 529 406 q 492 381 501 386 q 418 217 458 288 q 334 97 378 147 q 247 15 290 47 q 163 -31 203 -17 q 68 -42 107 -51 q 21 -21 44 -37 q -20 22 -3 -4 q -44 81 -37 49 q -42 149 -51 114 q -32 151 -39 156 q -17 135 -25 146 q 6 106 -7 122 q -4 41 -10 63 q 38 15 1 19 q 125 26 75 8 q 269 126 193 51 q 411 339 346 201 q 390 363 403 346 q 374 388 378 381 l 378 390 q 407 417 385 397 q 461 468 429 438 q 486 553 475 506 q 532 760 518 674 q 547 908 546 846 q 548 946 549 922 q 544 993 547 969 q 533 1036 540 1017 q 514 1063 526 1056 q 423 1056 474 1082 q 319 979 372 1031 q 215 863 265 929 q 132 733 165 796 q 83 622 97 671 q 70 633 78 624 q 56 653 63 643 q 47 674 50 664 q 44 689 43 685 q 89 785 58 729 q 129 852 107 818 q 176 919 151 886 q 228 983 201 953 q 282 1039 254 1014 q 398 1113 342 1094 q 498 1109 454 1131 q 567 1026 542 1088 q 592 864 593 965 q 579 727 590 806 q 540 544 568 649 q 683 678 606 607 q 836 813 761 750 q 976 921 911 876 q 1081 972 1040 965 q 1126 965 1103 976 q 1167 929 1150 953 q 1189 872 1183 906 q 1182 800 1194 839 q 1151 735 1169 765 q 1122 693 1133 706 q 1114 694 1122 693 q 1095 699 1106 694 q 1076 709 1085 703 q 1067 725 1068 715 z "},"k":{"ha":524,"x_min":-87,"x_max":707,"o":"m 160 618 q 335 826 249 744 q 494 949 422 907 q 617 996 565 990 q 688 976 668 1001 q 688 899 707 951 q 602 774 669 847 q 413 608 535 700 q 101 411 290 515 q 87 393 90 406 q 78 369 83 381 q 123 402 93 383 q 186 437 153 421 q 252 463 219 453 q 306 474 285 474 q 349 455 331 472 q 374 403 367 438 q 371 375 378 392 q 341 335 364 356 q 282 297 318 315 q 244 281 265 290 q 196 264 222 272 q 144 247 172 256 q 82 229 115 239 q 71 226 76 228 q 60 224 65 225 q 81 156 61 178 q 128 127 100 133 q 188 127 156 121 q 249 146 221 133 q 325 185 285 163 q 403 233 365 208 q 473 284 440 258 q 526 332 506 310 q 533 324 528 329 q 543 314 539 319 q 549 303 547 308 q 549 294 551 297 q 482 233 522 265 q 396 173 442 201 q 302 123 350 144 q 213 94 254 101 q 126 97 163 86 q 65 132 89 108 q 31 190 42 156 q 24 264 21 225 q -6 197 8 231 q -32 131 -19 163 q -38 108 -35 121 q -40 83 -42 94 q -64 92 -54 83 q -79 113 -74 100 q -86 138 -85 125 q -83 163 -87 151 q 28 396 -32 278 q 160 618 88 514 m 74 278 q 164 306 118 290 q 251 340 210 321 q 286 360 265 346 q 322 390 307 375 q 338 415 336 404 q 313 422 339 425 q 245 406 281 418 q 176 376 210 394 q 115 332 143 357 q 74 278 88 307 m 125 471 q 169 502 139 481 q 241 552 200 524 q 330 615 282 581 q 426 688 378 650 q 517 764 474 725 q 596 839 561 803 q 648 907 633 879 q 656 947 663 935 q 624 952 650 958 q 556 919 597 946 q 451 840 513 892 q 326 725 389 788 q 209 596 264 663 q 125 471 154 529 z "},"l":{"ha":354,"x_min":-36,"x_max":622,"o":"m 183 185 q 282 265 236 225 q 356 332 328 304 l 357 333 q 364 331 360 335 q 372 320 368 326 q 381 307 376 314 q 389 296 385 300 q 330 240 368 275 q 249 171 292 206 q 167 108 207 136 q 100 72 126 81 q 32 74 60 60 q -12 117 4 89 q -32 182 -28 146 q -29 249 -36 218 q 18 373 -18 301 q 105 523 54 444 q 217 680 156 601 q 342 824 279 758 q 466 938 406 890 q 576 1001 526 985 q 588 997 581 1003 q 603 982 596 990 q 615 965 610 974 q 622 951 621 956 q 507 892 572 939 q 374 778 442 846 q 240 628 306 710 q 122 463 174 546 q 77 381 103 431 q 32 279 51 331 q 4 183 13 228 q 9 119 -4 139 q 63 110 22 99 q 183 185 104 122 z "},"L":{"ha":685,"x_min":-124,"x_max":836,"o":"m 86 660 q 153 648 114 646 q 232 660 192 650 q 310 685 272 671 q 375 710 349 699 q 458 863 415 790 q 561 990 501 936 q 684 1078 629 1053 q 774 1100 739 1103 q 823 1069 810 1097 q 822 999 836 1042 q 761 903 807 957 q 635 794 715 850 q 524 726 582 758 q 411 668 465 694 q 347 531 376 604 q 283 384 317 458 q 207 240 250 310 q 101 115 164 171 q 153 94 124 114 q 219 51 182 74 q 299 9 256 28 q 390 -11 342 -10 q 494 12 439 -12 q 608 100 549 36 q 616 90 610 97 q 628 75 622 83 q 639 60 635 67 q 642 51 643 53 q 523 -43 581 -19 q 412 -62 465 -67 q 310 -33 358 -57 q 218 15 261 -10 q 138 55 175 39 q 68 58 100 71 q 1 8 28 24 q -43 -14 -26 -8 q -74 -18 -62 -21 q -90 -9 -79 -17 q -108 8 -100 -1 q -120 28 -117 18 q -115 46 -124 38 q 13 128 -39 90 q 102 205 65 167 q 165 284 139 243 q 216 376 192 325 q 267 489 240 426 q 333 632 294 551 q 252 602 292 614 q 193 586 213 590 q 148 582 168 581 q 113 590 128 583 q 77 614 92 599 q 58 642 63 629 q 59 663 53 656 q 86 660 65 669 m 456 747 q 577 822 518 782 q 681 899 636 863 q 704 919 688 904 q 738 951 721 933 q 771 988 756 969 q 790 1019 786 1006 q 785 1039 794 1033 q 742 1038 775 1044 q 651 997 694 1026 q 572 928 608 968 q 506 840 536 888 q 456 747 476 793 z "},"M":{"ha":1329,"x_min":-18,"x_max":1274,"o":"m 56 697 q 122 783 83 738 q 217 881 161 829 q 308 945 260 918 q 396 983 356 972 q 432 985 413 988 q 469 974 451 982 q 501 952 488 965 q 519 922 515 939 q 518 871 528 901 q 493 803 511 842 q 400 636 454 719 q 301 474 346 553 q 256 394 278 433 q 218 321 235 356 q 191 258 201 286 q 182 214 181 231 q 283 378 225 282 q 409 579 340 475 q 555 784 478 683 q 713 961 632 885 q 800 1033 754 1001 q 888 1075 846 1064 q 924 1074 904 1079 q 963 1055 944 1068 q 993 1023 981 1042 q 1007 982 1006 1004 q 1001 925 1010 958 q 967 846 992 892 q 940 791 954 821 q 907 729 925 761 q 842 602 876 669 q 774 466 807 535 q 711 329 740 397 q 663 200 682 261 q 644 137 654 174 q 633 75 635 100 q 644 49 631 50 q 694 92 657 47 q 740 151 714 115 q 800 235 767 186 q 845 301 818 261 q 904 383 872 340 q 972 470 936 426 q 1045 549 1008 514 q 1118 606 1082 585 q 1186 629 1154 628 q 1215 621 1199 629 q 1244 598 1231 613 q 1265 565 1257 583 q 1274 525 1274 546 q 1259 439 1272 489 q 1225 339 1246 389 q 1169 188 1190 256 q 1138 71 1149 121 q 1127 -36 1125 3 q 1138 -83 1129 -75 q 1139 -86 1140 -83 q 1135 -86 1138 -89 q 1125 -78 1132 -85 q 1110 -65 1118 -72 q 1095 -51 1101 -58 q 1089 -42 1089 -44 q 1083 19 1082 -22 q 1100 126 1085 60 q 1131 237 1111 175 q 1182 375 1150 299 q 1215 473 1203 424 q 1229 558 1228 522 q 1212 594 1229 596 q 1171 578 1194 593 q 1076 501 1121 544 q 992 408 1032 457 q 916 305 953 358 q 844 200 879 251 q 783 115 810 150 q 736 56 757 79 q 701 17 715 32 q 675 -6 686 3 q 645 -12 660 -18 q 619 10 631 -6 q 601 46 607 26 q 594 79 594 65 q 626 251 597 160 q 696 434 656 343 q 781 610 736 525 q 863 764 826 696 q 896 825 881 796 q 924 882 911 854 q 954 958 946 926 q 961 1014 963 990 q 942 1044 960 1042 q 895 1031 924 1046 q 833 987 867 1015 q 764 925 799 958 q 626 781 690 856 q 503 624 561 706 q 390 457 444 543 q 281 281 335 371 q 260 249 275 271 q 228 197 246 226 q 192 135 211 168 q 157 73 172 103 q 131 20 142 43 q 121 -12 121 -3 q 117 -28 121 -26 q 98 -24 110 -31 q 75 -7 86 -17 q 63 24 63 1 q 68 74 63 47 q 82 124 74 100 q 94 160 90 149 q 176 351 132 265 q 268 515 221 436 q 362 671 315 593 q 450 838 408 749 q 466 873 460 857 q 475 904 472 889 q 476 948 485 942 q 438 947 468 954 q 349 908 397 936 q 261 844 301 881 q 156 735 197 786 q 88 643 114 685 q 55 569 63 603 q 49 510 47 536 q 58 468 51 485 q 67 444 64 451 q 65 440 69 436 q 42 458 61 443 q 14 478 28 467 q -7 496 0 489 q -12 539 -18 510 q 7 600 -6 568 q 34 660 19 632 q 56 697 49 688 z "},"m":{"ha":817,"x_min":-37,"x_max":844,"o":"m 65 208 q 151 319 94 244 q 293 482 207 394 q 299 473 294 483 q 310 450 304 463 q 319 426 315 438 q 321 411 322 414 q 277 270 288 318 q 274 208 267 222 q 301 208 281 194 q 349 249 322 222 q 405 311 375 276 q 460 376 435 346 q 526 451 493 414 q 592 522 560 489 q 654 579 625 554 q 708 615 683 604 q 721 608 715 618 q 730 583 726 597 q 735 557 733 569 q 736 543 736 544 q 658 378 696 460 q 606 213 619 297 q 606 183 603 193 q 615 169 608 172 q 633 169 622 165 q 656 181 643 172 q 694 210 669 189 q 743 254 718 231 q 789 299 768 278 q 818 329 810 319 q 836 302 828 319 q 826 267 844 285 q 785 224 811 251 q 731 171 758 197 q 680 124 704 144 q 644 103 656 104 q 594 131 613 99 q 572 229 575 163 q 576 297 568 264 q 598 362 585 331 q 628 424 611 393 q 658 483 644 454 q 615 455 643 482 q 551 388 586 428 q 476 301 515 347 q 401 215 438 254 q 335 149 365 175 q 288 122 306 122 q 250 153 264 122 q 236 235 236 183 q 239 268 236 249 q 246 307 242 288 q 254 344 250 326 q 261 371 258 361 q 193 294 221 332 q 143 223 165 257 q 99 158 121 189 q 49 101 78 126 q 33 92 40 96 q 21 90 26 89 q -7 110 6 93 q -27 150 -19 126 q -36 201 -35 174 q -31 254 -37 229 q -13 306 -24 276 q 10 367 -3 336 q 36 429 22 399 q 63 482 50 460 q 116 570 90 533 q 157 618 142 607 q 166 611 158 618 q 181 594 174 604 q 194 572 189 583 q 194 550 199 560 l 193 550 q 163 525 181 546 q 126 474 144 504 q 88 408 107 443 q 54 338 69 372 q 26 276 39 304 q 10 232 14 247 q -4 164 -7 179 q 10 154 -1 149 q 38 178 22 160 q 65 208 54 196 z "},"n":{"ha":654,"x_min":-25,"x_max":676,"o":"m 53 225 q 117 272 89 249 q 176 324 146 296 q 233 382 201 349 q 300 444 265 415 q 369 491 335 474 q 432 503 403 508 q 444 499 435 504 q 465 487 454 494 q 483 472 475 479 q 489 463 490 465 q 433 331 449 385 q 442 258 418 278 q 520 256 464 239 q 656 333 576 274 q 663 323 658 331 q 670 307 667 315 q 675 292 674 299 q 675 283 676 285 q 540 210 601 226 q 440 210 478 193 q 394 278 403 228 q 418 404 385 328 q 428 429 424 417 q 431 449 432 442 q 419 456 429 457 q 389 442 410 456 q 331 394 365 426 q 258 323 297 361 q 176 248 218 285 q 99 188 135 211 q 60 180 81 176 q 22 196 40 183 q -8 225 4 208 q -22 256 -21 242 q -2 331 -25 283 q 53 426 21 378 q 119 512 85 474 q 174 561 154 550 q 197 560 183 567 q 219 543 210 554 q 233 520 229 532 q 228 503 236 508 q 218 513 226 506 q 203 514 210 519 q 120 418 158 474 q 53 310 82 363 q 40 285 49 304 q 26 247 31 265 q 25 219 21 228 q 53 225 29 210 z "},"o":{"ha":394,"x_min":-36,"x_max":424,"o":"m 43 151 q 151 233 88 154 q 156 239 154 236 q 158 244 157 242 q 137 264 149 250 q 115 294 125 278 q 96 326 104 310 q 86 354 88 342 q 84 370 85 363 q 83 385 83 378 q 70 361 78 374 q 54 332 63 349 q 38 293 50 324 q 18 231 25 263 q 14 174 11 199 q 43 151 17 149 m 317 475 q 282 342 319 424 q 264 306 275 328 q 244 271 253 285 q 317 295 274 278 q 403 338 361 313 q 409 328 404 335 q 418 314 414 321 q 423 301 422 307 q 419 292 424 294 q 303 238 353 253 q 217 224 253 222 q 203 204 210 214 q 190 188 197 194 q 126 122 157 143 q 72 100 96 101 q -10 133 15 96 q -33 231 -36 169 q -17 298 -31 256 q 17 382 -3 340 q 60 455 36 424 q 104 488 83 486 q 152 562 124 532 q 217 593 181 592 q 252 583 235 594 q 283 553 269 571 q 306 515 297 536 q 317 475 315 493 m 136 418 q 125 370 129 394 q 124 326 121 346 q 141 292 128 306 q 182 276 154 279 q 256 413 235 358 q 276 499 276 468 q 260 540 276 531 q 220 538 243 549 q 174 496 197 526 q 136 418 150 465 z "},"Z":{"ha":654,"x_min":-24,"x_max":981,"o":"m 44 731 q 127 815 69 772 q 261 896 185 857 q 425 967 338 935 q 597 1023 513 1000 q 757 1055 682 1046 q 882 1057 832 1064 q 928 1042 910 1051 q 963 1008 947 1032 q 963 929 981 976 q 937 883 953 906 q 894 834 921 860 q 828 779 867 808 q 738 714 790 750 q 626 633 685 676 q 507 546 567 590 q 390 456 447 501 q 282 368 332 411 q 245 319 246 338 q 266 288 244 300 q 326 269 288 276 q 406 255 364 263 q 487 238 447 247 q 552 209 526 228 q 583 162 578 190 q 560 90 588 133 q 465 19 525 47 q 336 -26 404 -10 q 201 -44 268 -42 q 83 -39 133 -47 q 18 -11 46 -33 q -17 40 -10 11 q -6 100 -24 68 q 65 160 11 132 l 88 124 q 15 53 21 79 q 40 17 8 28 q 128 8 71 7 q 242 21 185 10 q 353 47 297 31 q 453 82 410 63 q 524 123 497 101 q 545 165 550 144 q 499 203 540 186 q 365 233 457 221 q 280 253 319 240 q 221 286 240 265 q 208 339 201 307 q 258 415 214 371 q 424 553 332 488 q 601 676 515 618 q 826 840 749 774 q 926 947 903 907 q 927 1005 950 988 q 851 1021 904 1022 q 720 1003 797 1019 q 559 959 643 986 q 390 897 475 932 q 237 826 306 863 q 123 751 168 789 q 71 682 78 714 q 63 692 68 686 q 52 706 57 699 q 44 719 47 713 q 44 731 42 725 z "},"Y":{"ha":742,"x_min":-7,"x_max":878,"o":"m 704 910 q 727 938 707 914 q 771 988 747 961 q 815 1039 794 1015 q 838 1065 835 1063 l 878 1042 q 795 868 833 956 q 720 694 757 781 q 644 521 683 607 q 563 350 606 435 q 592 356 574 353 q 628 358 610 358 q 660 353 646 358 q 679 332 675 347 q 610 315 647 321 q 540 301 574 310 q 467 177 506 238 q 391 66 428 117 q 322 -23 354 15 q 268 -81 289 -61 q 200 -121 236 -110 q 126 -108 164 -132 q 94 -54 96 -90 q 114 25 93 -18 q 174 115 135 68 q 262 203 213 163 q 369 276 311 244 q 485 321 426 308 q 539 429 507 364 q 606 569 571 494 q 674 721 640 643 q 736 867 708 799 q 631 735 690 810 q 506 583 571 660 q 378 438 442 507 q 264 324 315 369 q 163 260 213 279 q 74 251 113 240 q 15 305 36 261 q 0 432 -7 349 q 6 485 3 457 q 15 540 10 513 q 49 658 29 603 q 92 760 68 713 q 133 837 113 801 q 172 899 154 872 q 204 944 190 926 q 225 969 218 963 q 233 970 225 969 q 251 969 240 971 q 269 965 261 968 q 281 953 278 961 q 195 839 239 913 q 119 679 151 765 q 81 568 100 631 q 53 448 63 506 q 47 346 44 390 q 74 289 50 301 q 144 303 97 276 q 271 415 192 331 q 359 512 313 460 q 452 616 406 564 q 542 717 499 668 q 619 807 585 767 q 676 874 653 847 q 704 910 699 901 m 450 261 q 360 221 404 247 q 277 160 315 194 q 208 89 239 126 q 161 17 178 51 q 142 -42 146 -12 q 145 -87 138 -71 q 172 -101 153 -104 q 222 -65 190 -99 q 267 -16 240 -49 q 326 60 294 17 q 389 154 357 103 q 450 261 421 206 z "},"X":{"ha":838,"x_min":4,"x_max":1153,"o":"m 64 -72 q 51 -65 60 -71 q 33 -51 42 -58 q 17 -35 24 -43 q 13 -22 10 -28 q 124 208 53 86 q 292 450 196 331 q 297 472 292 451 q 312 527 303 493 q 331 603 321 561 q 353 688 342 646 q 374 771 364 731 q 392 840 385 811 q 410 932 411 908 q 382 936 410 956 q 338 896 367 926 q 272 825 308 865 q 198 738 236 785 q 128 647 160 692 q 76 565 97 603 q 56 507 56 528 q 39 514 49 507 q 22 530 29 521 q 9 549 14 539 q 7 565 4 558 q 57 645 22 596 q 134 749 92 694 q 223 854 176 803 q 308 942 269 906 q 344 972 328 960 q 374 990 361 985 q 399 992 382 994 q 432 980 417 990 q 457 951 447 969 q 461 907 467 933 q 422 737 442 822 q 383 565 403 651 q 497 688 439 629 q 649 831 572 764 q 800 948 725 897 q 945 1031 875 999 q 1076 1071 1015 1063 q 1089 1063 1078 1071 q 1113 1044 1100 1054 q 1137 1024 1125 1033 q 1153 1010 1149 1014 q 1136 1008 1150 1007 q 1103 1011 1122 1010 q 1061 1011 1083 1013 q 1021 1001 1039 1010 q 850 908 936 968 q 681 774 764 849 q 520 617 597 700 q 378 454 443 535 q 364 436 367 440 q 358 411 361 432 q 349 294 351 351 q 351 183 347 236 q 383 56 358 100 q 442 -4 407 11 q 522 -12 478 -19 q 610 15 565 -6 q 701 65 656 36 q 783 119 746 93 q 799 102 786 121 q 825 72 811 83 q 662 -26 733 6 q 538 -61 590 -58 q 368 5 433 -68 q 292 211 303 78 q 289 273 289 240 q 290 338 289 306 q 228 247 261 296 q 164 144 194 197 q 108 35 133 90 q 65 -72 82 -21 l 64 -72 z "},"W":{"ha":1032,"x_min":-68,"x_max":999,"o":"m 885 981 q 947 930 924 964 q 981 854 969 896 q 995 769 992 813 q 997 690 999 725 q 972 512 996 601 q 910 339 949 422 q 823 182 872 256 q 721 50 774 108 q 617 -37 674 1 q 494 -96 561 -75 q 443 -103 472 -103 q 385 -97 414 -104 q 333 -72 357 -89 q 300 -24 310 -54 q 288 73 286 17 q 297 193 289 129 q 307 254 300 222 q 322 322 314 286 q 333 363 328 342 q 344 403 338 383 q 299 326 325 369 q 242 235 272 282 q 181 141 213 188 q 121 55 150 94 q 66 -14 92 15 q 21 -54 40 -43 q 2 -56 17 -57 q -27 -50 -12 -56 q -54 -33 -42 -44 q -67 -6 -67 -22 q -50 117 -68 33 q 10 340 -32 200 q 74 531 39 435 q 142 703 103 611 q 225 872 181 796 q 253 918 238 894 q 288 965 269 942 q 324 1008 306 988 q 361 1040 343 1028 q 398 1038 381 1053 q 417 999 415 1024 q 417 987 417 994 q 417 972 418 979 q 413 962 415 965 q 406 963 411 958 q 390 976 396 972 q 374 971 383 979 q 301 878 338 939 q 230 744 264 817 q 167 595 196 671 q 115 458 138 519 q 80 356 93 396 q 67 315 67 315 q 13 118 29 190 q 0 11 -3 46 q 59 76 25 32 q 130 175 93 121 q 201 287 167 229 q 265 392 236 344 q 310 469 293 439 q 328 501 328 500 l 331 504 l 422 456 l 422 450 q 399 375 408 411 q 381 304 389 339 q 366 235 372 268 q 357 174 360 201 q 347 56 349 111 q 357 -35 344 1 q 390 -72 367 -65 q 445 -69 414 -78 q 511 -40 476 -60 q 577 3 546 -19 q 632 46 608 25 q 667 78 656 67 q 767 207 719 135 q 852 360 815 279 q 912 527 889 442 q 939 696 935 613 q 939 749 940 717 q 933 816 938 782 q 918 883 928 850 q 892 940 908 917 q 853 971 876 963 q 797 967 829 979 q 765 968 786 964 q 738 993 744 972 q 811 1003 774 1010 q 885 981 849 996 z "},"V":{"ha":607,"x_min":-26,"x_max":822,"o":"m 6 563 q -8 585 6 568 q -21 606 -15 596 q -22 626 -26 617 q 11 689 -14 647 q 69 776 36 731 q 140 863 103 822 q 208 926 176 904 q 263 940 240 947 q 289 879 285 932 q 276 774 292 844 q 215 582 260 703 q 104 238 139 365 q 69 56 69 110 q 100 14 69 1 q 183 92 131 26 q 306 268 236 157 q 456 522 376 379 l 768 1082 q 798 1074 783 1083 q 822 1056 813 1064 l 506 500 q 310 182 401 314 q 157 -3 219 50 q 112 -29 136 -21 q 67 -33 88 -37 q 31 -10 46 -29 q 17 47 17 10 q 33 174 17 101 q 72 324 49 247 q 119 475 94 401 q 164 601 144 549 q 178 640 167 610 q 202 709 189 671 q 226 786 215 747 q 240 852 238 825 q 234 885 243 879 q 199 865 225 892 q 140 798 171 838 q 84 715 110 758 q 40 631 58 672 q 15 560 21 590 l 6 563 z "},"U":{"ha":950,"x_min":-12,"x_max":1178,"o":"m 107 229 q 99 236 107 229 q 80 251 90 243 q 59 269 69 260 q 44 286 49 279 q 24 319 35 299 q 5 366 14 339 q -8 426 -4 393 q -10 496 -12 458 q 6 573 -7 532 q 43 659 18 614 q 109 752 68 704 q 210 851 150 800 q 377 920 314 915 q 467 883 440 925 q 484 758 493 840 q 435 568 475 676 q 390 453 414 510 q 342 343 365 396 q 299 243 319 290 q 268 157 279 196 q 246 54 249 90 q 253 4 243 18 q 284 -4 264 -10 q 328 19 304 1 q 379 63 353 38 q 428 117 406 89 q 557 263 492 185 q 685 421 622 340 q 808 582 749 501 q 918 734 867 663 q 1011 866 969 806 q 1082 968 1053 926 q 1113 1013 1100 996 q 1131 1038 1125 1031 l 1178 1001 q 1153 963 1178 1001 q 1090 861 1129 925 q 1002 713 1050 797 q 908 535 954 628 q 821 346 861 442 q 757 163 781 250 q 731 1 733 75 q 760 -119 729 -72 l 750 -125 q 742 -116 747 -122 q 729 -101 736 -110 q 706 -76 717 -89 q 693 -56 694 -64 q 684 99 675 21 q 715 249 693 178 q 765 376 738 319 q 809 463 792 432 q 825 494 826 494 q 790 452 824 494 q 681 319 756 410 q 475 81 606 229 q 338 -26 397 -4 q 245 -28 279 -49 q 203 49 211 -7 q 217 179 194 106 q 248 267 228 218 q 292 369 268 315 q 340 483 315 424 q 388 601 365 542 q 430 728 413 669 q 446 825 447 788 q 419 874 444 863 q 332 856 394 885 q 238 796 286 835 q 149 706 190 757 q 79 595 108 654 q 41 474 50 536 q 47 353 32 413 q 113 240 63 293 l 107 229 z "},"T":{"ha":463,"x_min":-15,"x_max":1242,"o":"m 1242 1057 q 911 1044 1061 1056 q 635 1018 761 1033 q 567 944 606 988 q 485 849 529 901 q 394 736 442 797 q 301 608 347 675 q 327 485 324 547 q 324 358 331 422 q 292 234 317 300 q 231 108 267 168 q 131 -32 182 24 q 83 -74 106 -60 q 44 -86 61 -89 q 32 -81 38 -86 q -8 -15 0 -60 q -9 79 -15 29 q 12 177 -3 129 q 38 254 26 225 q 138 462 79 360 q 264 658 197 564 q 224 724 250 693 q 167 783 199 756 q 102 834 136 811 q 38 874 68 857 l 21 882 l 4 935 q 153 985 65 960 q 340 1031 228 1007 q 604 1076 451 1056 l 654 1128 q 666 1126 658 1132 q 681 1113 674 1121 q 697 1088 689 1103 l 697 1086 q 931 1106 806 1097 q 1201 1115 1057 1114 q 1210 1108 1204 1115 q 1224 1092 1217 1101 q 1236 1073 1231 1083 q 1242 1057 1242 1063 m 97 24 q 147 85 121 50 q 196 161 172 121 q 256 285 231 221 q 286 406 281 349 q 292 494 292 450 q 283 583 292 539 q 168 398 222 493 q 74 203 114 303 q 57 156 68 186 q 36 92 46 125 q 21 30 26 60 q 19 -15 15 0 q 42 -23 24 -29 q 97 24 60 -17 m 275 675 q 414 858 346 774 q 539 1004 482 942 q 242 944 357 976 q 75 894 128 913 q 140 846 113 869 q 189 797 167 822 q 231 741 211 771 q 272 672 250 711 l 275 675 z "},"S":{"ha":722,"x_min":-3,"x_max":1050,"o":"m 525 578 q 556 590 525 578 q 636 624 588 601 q 745 682 685 647 q 865 761 806 717 q 973 864 936 814 q 1021 956 1010 914 q 1015 1001 1028 988 q 974 1028 1003 1015 q 867 1045 931 1046 q 722 1021 804 1044 q 541 949 633 994 q 364 844 449 903 q 212 721 281 786 q 101 590 143 656 q 78 552 94 579 q 49 494 63 525 q 30 438 35 464 q 40 401 25 411 q 71 389 53 393 q 142 382 99 382 q 236 385 186 382 q 308 387 271 386 q 378 385 344 388 q 440 379 411 383 q 488 365 468 375 q 516 339 504 357 q 533 299 528 321 q 538 254 539 276 q 529 215 538 232 q 445 113 503 163 q 319 26 388 64 q 235 -15 278 3 q 154 -43 192 -32 q 86 -58 117 -54 q 39 -56 56 -61 q 23 -33 32 -53 q 8 0 14 -14 q 6 5 6 3 q 4 8 6 7 q 3 11 4 8 l 11 15 q 21 7 13 13 q 118 14 49 -6 q 271 74 188 31 q 335 110 301 89 q 401 157 369 132 q 461 211 433 182 q 506 271 489 240 q 506 300 517 290 q 458 317 496 310 q 363 325 418 325 q 254 322 307 325 q 158 320 203 321 q 86 326 114 319 q 68 333 76 329 q 53 340 60 336 q 22 383 29 354 q 13 411 18 400 q 4 436 7 422 q 6 499 -3 464 q 31 568 13 531 q 76 649 49 606 q 188 781 118 715 q 342 904 257 846 q 519 1010 426 964 q 701 1083 613 1056 q 850 1108 785 1107 q 960 1089 915 1108 q 1022 1035 1003 1069 q 1034 1006 1028 1024 q 1044 967 1040 988 q 1049 929 1047 947 q 1047 900 1050 911 q 998 806 1036 857 q 888 701 960 756 q 817 652 853 675 q 749 610 782 629 q 656 563 699 582 q 586 532 614 543 q 550 543 568 525 q 525 578 532 561 z "},"R":{"ha":1076,"x_min":-28,"x_max":1088,"o":"m -26 185 q -9 292 -22 233 q 28 418 4 351 q 84 550 51 482 q 158 683 117 618 q 250 809 200 749 q 360 921 300 869 q 574 1050 464 1010 q 781 1090 683 1090 q 873 1082 829 1090 q 951 1054 917 1074 q 1015 1008 986 1038 q 1061 942 1043 979 q 1083 865 1079 906 q 1075 785 1088 825 q 1025 674 1057 728 q 911 545 976 596 q 769 465 846 494 q 607 426 692 436 q 438 419 522 417 q 453 232 428 314 q 527 95 479 150 q 638 14 575 40 q 767 -8 701 -12 q 894 35 833 -3 q 997 147 954 74 q 1007 131 1001 142 q 1016 110 1013 121 q 1021 90 1019 100 q 1018 76 1022 81 q 901 -40 961 -3 q 783 -80 842 -76 q 670 -59 725 -83 q 568 8 615 -35 q 483 106 521 50 q 419 224 444 163 q 383 344 393 285 q 381 454 372 404 q 306 309 344 382 q 228 174 267 236 q 178 99 203 133 q 130 41 153 65 q 87 4 107 17 q 50 -6 67 -8 q 25 7 33 -3 q -1 42 10 19 q -17 90 -11 64 q -26 140 -24 115 q -26 185 -28 165 m 392 457 q 558 463 472 450 q 726 509 644 475 q 878 598 807 543 q 1000 731 949 653 q 1040 807 1025 768 q 1053 881 1054 846 q 1033 948 1053 917 q 969 1003 1014 979 q 801 1038 901 1038 q 599 997 706 1036 q 388 869 492 957 q 278 759 329 819 q 187 633 228 699 q 113 501 146 568 q 58 371 81 435 q 22 248 35 306 q 6 142 10 190 q 10 57 3 90 q 29 47 18 49 q 85 73 53 43 q 154 153 118 103 q 229 271 190 204 q 304 408 268 338 q 373 547 340 479 q 430 668 406 615 q 469 754 454 721 q 483 788 483 788 l 489 785 l 492 788 q 501 760 497 774 q 506 738 504 749 q 506 721 508 726 q 458 617 490 689 q 383 458 426 544 l 392 457 z "},"Q":{"ha":715,"x_min":-1,"x_max":771,"o":"m 483 665 q 501 668 490 671 q 520 659 511 665 q 534 647 529 653 q 538 639 539 640 q 467 528 500 590 q 410 397 435 465 q 370 258 386 328 q 349 126 354 189 q 481 282 418 194 q 593 463 543 369 q 678 649 643 557 q 726 820 713 742 q 730 956 740 899 q 680 1038 719 1014 q 567 1042 640 1061 q 385 951 494 1024 q 322 905 358 935 q 249 838 286 875 q 175 758 211 801 q 112 672 139 715 q 69 588 85 629 q 58 511 54 546 q 91 567 72 549 q 128 590 110 586 q 160 583 146 593 q 179 556 174 574 q 144 550 158 560 q 119 524 129 540 q 103 488 110 507 q 92 454 97 468 q 199 481 142 454 q 312 544 257 508 q 413 614 367 579 q 483 665 458 649 m 82 424 q 58 272 65 357 q 63 103 51 186 q 90 2 74 33 q 133 -29 106 -29 q 199 -1 160 -29 q 297 76 239 28 q 319 265 296 176 q 370 420 343 354 q 417 524 397 486 q 428 561 436 561 q 330 498 374 526 q 246 451 286 469 q 167 424 206 432 q 82 424 128 417 m 771 850 q 728 640 769 751 q 625 420 688 528 q 489 216 563 313 q 349 50 415 119 q 353 14 350 33 q 362 -22 356 -6 q 380 -47 368 -37 q 413 -54 392 -57 q 419 -59 414 -54 q 430 -69 424 -64 q 441 -78 436 -74 q 446 -83 446 -83 q 429 -86 446 -83 q 389 -82 413 -89 q 342 -53 365 -75 q 306 15 318 -32 q 188 -54 239 -40 q 99 -50 136 -68 q 40 13 63 -32 q 8 117 17 57 q 2 249 -1 178 q 22 393 6 321 q 32 421 28 408 q 40 444 36 433 q 15 526 15 483 q 28 613 14 569 q 70 700 43 657 q 129 782 97 743 q 195 853 161 821 q 258 910 229 886 q 366 988 308 951 q 480 1049 424 1025 q 588 1078 536 1072 q 681 1065 640 1085 q 745 993 721 1044 q 771 850 769 942 z "},"P":{"ha":1060,"x_min":-69,"x_max":1053,"o":"m 232 485 q 274 555 246 517 q 333 631 301 593 q 397 703 364 669 q 454 757 429 736 q 521 806 490 789 q 575 824 551 824 q 639 795 622 824 q 653 723 656 767 q 633 626 650 679 q 594 522 615 572 q 550 429 572 471 q 517 368 528 388 q 483 312 500 340 q 449 256 467 283 q 547 242 496 242 q 647 253 597 242 q 742 286 696 264 q 825 339 788 308 q 932 462 892 393 q 989 603 972 531 q 999 747 1006 675 q 966 878 993 819 q 892 979 939 938 q 780 1035 844 1021 q 634 1028 715 1049 q 457 942 553 1007 q 363 867 410 910 q 258 761 307 819 q 164 635 208 703 q 89 502 119 564 q 39 386 58 440 q 4 286 15 332 q -14 201 -7 240 q -16 72 -24 136 q 17 -29 -8 8 q 89 -67 43 -67 q 203 -6 135 -68 q 267 65 231 19 q 343 168 303 111 q 375 219 358 194 q 407 271 392 244 q 411 276 404 276 q 449 341 431 308 q 486 406 467 374 q 520 474 497 426 q 566 578 543 522 q 605 685 589 633 q 617 764 621 736 q 581 784 613 792 q 481 714 550 776 q 401 635 440 679 q 328 549 361 592 q 281 480 300 511 q 257 432 261 449 q 249 441 254 433 q 240 458 244 449 q 234 476 236 468 q 232 485 232 483 m 435 226 q 376 135 406 179 q 319 55 347 92 q 267 -10 292 18 q 224 -56 243 -39 q 115 -106 167 -104 q 22 -78 63 -108 q -43 7 -18 -47 q -68 126 -68 61 q -67 179 -69 153 q -61 228 -64 206 q -42 316 -54 268 q -8 419 -29 364 q 47 538 15 475 q 124 674 79 601 q 219 805 168 744 q 328 914 269 865 q 445 1003 385 965 q 565 1064 506 1040 q 717 1088 644 1094 q 849 1049 789 1082 q 953 961 908 1017 q 1024 837 999 906 q 1051 690 1049 768 q 1026 533 1053 611 q 961 402 1003 464 q 861 294 919 340 q 769 240 826 265 q 651 202 713 215 q 532 193 590 189 q 435 226 474 197 z "},"O":{"ha":651,"x_min":-42,"x_max":704,"o":"m 96 392 q 60 303 81 358 q 24 188 39 247 q 3 76 8 129 q 14 -6 -1 22 q 69 -29 29 -35 q 185 35 110 -24 q 318 165 247 83 q 453 341 389 246 q 567 535 517 436 q 640 715 617 633 q 660 806 651 757 q 662 894 668 854 q 629 959 656 935 q 544 976 603 983 q 430 931 485 967 q 332 850 375 894 q 342 851 339 850 q 349 845 342 851 q 366 831 357 839 q 382 814 375 822 q 389 801 389 806 q 314 761 353 801 q 240 667 275 721 q 176 558 204 613 q 135 472 149 503 q 129 437 132 458 q 127 394 126 415 q 133 355 128 372 q 153 331 139 338 q 221 315 186 314 q 272 321 256 315 q 283 315 275 321 q 299 303 290 310 q 313 288 307 296 q 321 275 319 281 q 252 269 288 267 q 186 287 217 272 q 131 328 156 301 q 96 392 107 354 m 692 892 q 702 801 704 854 q 679 675 700 747 q 636 555 664 618 q 572 426 608 492 q 492 297 535 361 q 403 176 449 233 q 310 69 357 118 q 221 -12 264 21 q 108 -70 160 -61 q 23 -56 57 -79 q -26 20 -11 -33 q -32 151 -42 74 q -12 248 -26 199 q 19 345 1 297 q 57 437 38 393 q 94 514 76 481 q 165 713 111 619 q 231 817 194 768 q 306 906 267 865 q 407 988 354 958 q 508 1024 460 1017 q 619 993 569 1031 q 692 892 669 956 z "},"N":{"ha":968,"x_min":7,"x_max":1049,"o":"m 117 363 q 104 318 110 343 q 92 270 99 297 q 78 211 85 243 q 69 166 74 197 q 63 99 65 135 q 61 30 60 64 q 69 -24 63 -4 q 90 -42 76 -43 q 128 -8 104 -42 q 173 75 150 24 q 224 189 196 126 q 249 253 235 221 q 279 319 264 285 l 294 353 q 345 465 317 403 q 406 596 374 528 q 474 732 438 664 q 548 861 510 800 q 626 972 586 922 q 708 1054 667 1022 q 720 1051 714 1057 q 733 1036 726 1046 q 747 1011 740 1025 q 675 840 714 936 q 601 640 636 744 q 538 431 565 536 q 500 231 510 325 q 495 158 497 206 q 499 63 493 110 q 524 -18 506 15 q 583 -47 543 -51 q 631 -22 607 -44 q 676 33 654 0 q 718 107 699 67 q 754 186 738 147 q 783 258 771 225 q 803 310 796 290 q 815 340 803 310 q 845 417 826 371 q 887 520 864 464 q 932 628 910 576 q 974 719 954 679 q 1004 775 993 760 q 1014 770 1006 778 q 1033 756 1022 763 q 1041 746 1038 750 q 1046 742 1044 742 l 1049 739 q 1022 695 1040 732 q 980 606 1003 658 q 932 495 957 554 q 887 386 907 436 q 853 303 867 336 q 840 268 840 269 l 840 267 q 819 209 833 246 q 787 129 806 172 q 746 44 768 86 q 699 -31 724 1 q 647 -80 674 -62 q 594 -87 621 -97 q 507 -24 538 -69 q 465 84 476 21 q 458 223 453 147 q 478 378 463 299 q 517 536 494 457 q 563 685 539 615 q 608 809 586 754 q 642 896 629 864 q 560 769 600 839 q 481 624 519 700 q 405 467 442 547 q 333 311 368 388 l 319 279 q 289 212 303 244 q 260 149 275 179 q 217 46 238 93 q 176 -34 196 -1 q 137 -82 157 -67 q 94 -90 117 -97 q 36 -43 56 -76 q 12 34 17 -10 q 13 128 7 78 q 29 228 18 179 q 53 319 40 276 q 74 389 65 361 q 81 390 75 393 q 94 382 86 388 q 108 370 101 376 q 117 363 114 364 z "},"±":{"ha":569,"x_min":4,"x_max":422,"o":"m 213 247 q 197 249 206 246 q 179 256 188 251 q 165 264 171 260 q 161 271 160 268 q 190 326 176 299 q 215 382 203 354 q 167 381 192 382 q 119 379 143 381 q 110 386 117 379 q 97 402 104 393 q 85 422 90 411 q 79 438 79 432 q 156 442 118 440 q 232 443 194 443 l 242 443 q 263 502 253 472 q 283 561 274 532 q 301 561 292 564 q 319 554 311 558 q 333 546 328 550 q 339 540 339 542 l 301 440 q 342 436 322 438 q 383 433 363 435 q 391 426 385 433 q 405 409 397 418 q 417 390 413 400 q 422 372 422 379 q 350 378 386 376 q 278 382 314 381 q 247 316 263 350 q 213 247 232 282 m 4 197 q 81 201 43 200 q 157 203 119 203 q 233 199 196 201 q 308 193 271 196 q 316 185 310 193 q 330 169 322 178 q 342 149 338 160 q 347 132 347 139 q 44 139 192 149 q 35 146 42 139 q 22 162 29 153 q 10 181 15 171 q 4 197 4 192 z "},":":{"ha":349,"x_min":86,"x_max":228,"o":"m 169 417 q 180 417 171 419 q 199 410 189 415 q 217 401 208 406 q 228 394 225 396 q 222 385 228 394 q 208 363 215 375 q 196 340 201 351 q 193 322 190 328 q 181 317 190 315 q 161 324 171 319 q 142 341 146 329 q 141 366 138 353 q 153 392 144 379 q 169 417 161 406 m 118 228 q 128 228 119 231 q 147 222 138 226 q 165 212 157 217 q 176 206 174 207 q 170 196 176 206 q 157 174 164 186 q 144 151 150 163 q 142 133 139 139 q 129 128 139 126 q 110 135 119 131 q 90 152 94 140 q 90 177 86 164 q 101 203 93 190 q 118 228 110 217 z "},"”":{"ha":501,"x_min":185,"x_max":399,"o":"m 185 889 q 226 956 217 919 q 242 1029 236 992 q 249 1031 242 1032 q 267 1026 257 1029 q 287 1021 278 1024 q 299 1018 296 1018 q 300 1008 301 1021 q 293 974 299 994 q 278 930 288 953 q 256 892 269 907 q 224 873 242 876 q 185 889 207 869 m 282 889 q 324 956 314 919 q 339 1029 333 992 q 347 1031 339 1032 q 365 1026 354 1029 q 384 1021 375 1024 q 396 1018 393 1018 q 397 1008 399 1021 q 390 974 396 994 q 376 930 385 953 q 353 892 367 907 q 322 873 339 876 q 282 889 304 869 z "},"“":{"ha":501,"x_min":193,"x_max":407,"o":"m 407 1028 q 365 961 375 997 q 350 888 356 925 q 342 886 350 885 q 324 890 335 888 q 305 896 314 893 q 293 899 296 899 q 292 908 290 894 q 299 943 293 922 q 313 987 304 964 q 336 1025 322 1010 q 367 1044 350 1040 q 407 1028 385 1047 m 310 1028 q 268 961 278 997 q 253 888 258 925 q 245 886 253 885 q 227 890 238 888 q 208 896 217 893 q 196 899 199 899 q 194 908 193 894 q 201 943 196 922 q 216 987 207 964 q 239 1025 225 1010 q 270 1044 253 1040 q 310 1028 288 1047 z "},"’":{"ha":401,"x_min":185,"x_max":301,"o":"m 185 889 q 226 956 217 919 q 242 1029 236 992 q 249 1031 242 1032 q 267 1026 257 1029 q 287 1021 278 1024 q 299 1018 296 1018 q 300 1008 301 1021 q 293 974 299 994 q 278 930 288 953 q 256 892 269 907 q 224 873 242 876 q 185 889 207 869 z "},"‘":{"ha":401,"x_min":193,"x_max":310,"o":"m 310 1031 q 268 964 278 1000 q 253 890 258 928 q 245 889 253 888 q 227 893 238 890 q 208 899 217 896 q 196 901 199 901 q 194 911 193 897 q 201 946 196 925 q 216 990 207 967 q 239 1028 225 1013 q 270 1047 253 1043 q 310 1031 288 1050 z "},"#":{"ha":896,"x_min":0,"x_max":815,"o":"m 104 88 q 117 160 108 122 q 139 236 126 197 q 110 228 124 232 q 83 221 96 224 q 56 203 68 214 q 46 172 43 192 q 28 186 35 175 q 22 211 22 197 q 28 238 22 225 q 47 257 33 251 q 101 277 74 268 q 157 293 128 286 q 181 349 167 322 q 120 332 146 339 q 75 319 94 325 q 58 313 64 315 q 49 307 53 310 q 40 299 44 304 q 28 283 36 293 q 12 302 19 290 q 2 325 4 314 q 3 347 0 336 q 22 363 7 357 q 111 390 64 376 q 210 419 158 404 q 287 581 246 503 q 364 724 328 660 q 372 720 365 725 q 385 709 378 715 q 400 697 393 703 q 410 692 407 692 q 368 617 390 657 q 325 536 349 582 q 276 438 301 490 q 419 471 347 456 q 561 496 490 486 q 626 606 593 554 q 688 704 658 658 q 704 717 694 715 q 724 713 714 718 q 742 698 733 707 q 756 681 750 689 q 740 674 744 676 q 731 668 735 671 q 723 660 726 665 q 714 646 719 656 q 677 587 700 624 q 628 503 654 550 q 767 507 703 508 q 794 494 783 506 q 810 469 806 483 q 813 440 815 454 q 800 419 810 426 q 778 447 796 439 q 744 456 761 454 q 672 452 710 456 q 593 443 633 449 q 543 349 567 401 q 644 355 596 353 q 733 358 692 357 q 754 351 747 358 q 763 332 761 343 q 761 309 764 321 q 754 289 758 297 q 738 298 743 294 q 728 303 733 301 q 717 304 724 304 q 700 304 711 304 q 624 301 672 303 q 517 296 576 299 q 472 192 492 243 q 440 94 451 140 q 438 63 436 79 q 460 38 440 46 q 437 31 450 29 q 413 39 424 32 q 394 58 401 46 q 389 86 386 71 q 415 183 397 131 q 456 289 432 235 q 326 274 393 283 q 199 251 260 265 q 172 173 183 211 q 153 100 160 135 q 153 67 150 85 q 176 44 157 50 q 155 36 168 36 q 130 43 142 36 q 110 61 118 50 q 104 88 101 72 m 244 368 q 233 338 239 353 q 219 308 226 324 q 349 330 282 322 q 481 344 415 338 q 504 390 493 368 q 526 433 515 411 q 381 403 454 421 q 244 368 308 386 z "},"!":{"ha":275,"x_min":-4,"x_max":465,"o":"m 0 81 q 1 125 -4 100 q 20 167 7 150 q 52 188 33 185 q 94 167 71 192 q 65 115 75 147 q 64 57 54 83 q 49 58 60 56 q 28 65 39 61 q 8 74 17 69 q 0 81 0 78 m 110 233 q 94 238 103 233 q 79 249 86 243 q 67 260 72 254 q 61 268 61 265 q 115 465 75 357 q 206 683 154 572 q 314 900 257 794 q 419 1089 371 1006 q 427 1087 421 1092 q 441 1075 433 1082 q 456 1061 449 1068 q 465 1053 463 1054 q 441 1011 465 1053 q 380 901 417 969 q 300 747 343 833 q 217 570 257 661 q 148 391 178 479 q 110 233 118 303 z "},"\"":{"ha":501,"x_min":185,"x_max":399,"o":"m 185 889 q 226 956 217 919 q 242 1029 236 992 q 249 1031 242 1032 q 267 1026 257 1029 q 287 1021 278 1024 q 299 1018 296 1018 q 300 1008 301 1021 q 293 974 299 994 q 278 930 288 953 q 256 892 269 907 q 224 873 242 876 q 185 889 207 869 m 282 889 q 324 956 314 919 q 339 1029 333 992 q 347 1031 339 1032 q 365 1026 354 1029 q 384 1021 375 1024 q 396 1018 393 1018 q 397 1008 399 1021 q 390 974 396 994 q 376 930 385 953 q 353 892 367 907 q 322 873 339 876 q 282 889 304 869 z "}}}
